<?xml version="1.0" encoding="utf-8"?>
<!-- Generator: Adobe Illustrator 25.0.1, SVG Export Plug-In . SVG Version: 6.00 Build 0)  -->
<svg version="1.1" id="Layer_1" xmlns="http://www.w3.org/2000/svg" xmlns:xlink="http://www.w3.org/1999/xlink" x="0px" y="0px"
	 viewBox="0 0 2000 2000" style="enable-background:new 0 0 2000 2000;" xml:space="preserve">
<style type="text/css">
	.st0{fill:#C71617;}
	.st1{fill:#FFFFFF;}
	.st2{fill:#12100B;}
	.st3{fill:none;stroke:#1D1D1B;stroke-width:3;}
	.st4{fill:#1D1D1B;}
	.st5{clip-path:url(#SVGID_2_);fill:#1D1D1B;}
	.st6{clip-path:url(#SVGID_4_);fill:#1D1D1B;}
	.st7{clip-path:url(#SVGID_6_);fill:#1D1D1B;}
	.st8{clip-path:url(#SVGID_8_);fill:#1D1D1B;}
</style>
<g>
	<path class="st0" d="M1756.9,969.7c0-65.2-8.2-128.5-23.6-188.9l-280.6-28.7l261.7-34c-30.3-86.8-75.8-166.4-133.3-235.6l-275,97.6
		l235.3-141.7c-30.2-31.1-62.9-59.6-98-85.2l-186.7,161.6l147.5-188.4c-48.4-30.9-100.5-56.5-155.5-76l-121.9,234.5l74.4-249.6
		c-52.7-14.9-107.7-24.2-164.4-27.3l-35,245.4l-35-245.4c-56.7,3.1-111.7,12.5-164.4,27.3L877,484.8L755.1,250.3
		c-55,19.5-107.1,45.1-155.5,76l147.5,188.4L560.4,353.1c-35,25.6-67.8,54.1-98,85.2l235.3,141.7l-275-97.6
		c-57.5,69.3-103,148.9-133.3,235.6l261.7,34l-280.5,28.7c-15.4,60.4-23.6,123.7-23.6,188.8c0,20.5,0.8,40.9,2.4,61l213.1-53
		L256.9,1093c15.3,94.3,48,182.8,94.5,262.2l375.4-345l-332.2,410.7c51.9,70.7,115.8,132.2,188.6,181.3l336.7-642.8l-257.2,689.8
		c91.6,46.9,194,75.8,302.4,82.1l36.8-764.7l36.8,764.7c108.4-6.3,210.8-35.2,302.4-82.1L1084,959.5l336.8,642.8
		c72.8-49.2,136.6-110.6,188.6-181.3l-332.2-410.7l375.4,345c46.6-79.3,79.2-167.8,94.5-262.2l-205.6-115.3l213.1,53
		C1756.1,1010.6,1756.9,990.2,1756.9,969.7"/>
	<path class="st1" d="M870.4,706.4v-1.2c38.7-13.6,54-39,54-65.1c0-30.2-18.9-52.5-44.8-63.8c-25.9-12.1-54.5-15.2-101.5-15.2
		c-41.1,0-85.1,3.2-105.2,6.7l0,0h-20.1v56.5h20.1V872c17.9,2.7,47.4,5.1,87.7,5.1c71.4,0,112.8-10.3,137.8-27.8
		c22.1-15.5,37.3-38.4,37.3-67.6C935.6,744.8,911.2,716.7,870.4,706.4 M761.1,622.7c5.8-1,14.2-1.8,29.2-1.8
		c29.9,0,44.7,11.5,44.7,29.7c0,20-18.3,32.4-56,32.4h-17.9V622.7z M786.8,816.2c-11.5,0-19.1,0-25.7-0.9v-73.7h21.4
		c33.5,0,59.3,10.1,59.3,36.3C841.8,805.2,816.4,816.2,786.8,816.2z"/>
	<path class="st1" d="M1329.5,563.6h-89.2v191.5c0,42.8-18.8,54.6-47.4,54.6c-14.4,0-28.4-2.3-39.3-5.2l-9.4,66.7
		c16.7,5.2,40.9,7.5,59,7.5c79.9,0,126.2-33.5,126.2-123.9V620.1h20.2v-56.5H1329.5"/>
	<path class="st1" d="M1147.6,620.1v-56.5h-109.3v191.5c0,42.8-18.8,54.6-47.4,54.6c-14.5,0-28.4-2.3-39.3-5.2l-9.4,66.7
		c16.7,5.2,40.9,7.5,59,7.5c79.9,0,126.2-33.5,126.2-123.9V620.1H1147.6"/>
	<polyline class="st2" points="695.8,592.5 717.4,614 738,593.5 748.9,604.4 728.4,625 750.1,646.8 738.6,658.2 716.9,636.5 
		696.3,657.1 685.3,646.1 705.9,625.5 684.4,604 695.8,592.5 	"/>
	<polygon class="st3" points="695.8,592.5 717.4,614 738,593.5 748.9,604.4 728.4,625 750.1,646.8 738.6,658.2 716.9,636.5 
		696.3,657.1 685.3,646.1 705.9,625.5 684.4,604 	"/>
	<polyline class="st2" points="695.8,683.1 717.4,704.7 738,684.1 748.9,695.1 728.4,715.7 750.1,737.4 738.6,748.9 716.9,727.1 
		696.3,747.7 685.3,736.8 705.9,716.2 684.4,694.6 695.8,683.1 	"/>
	<polygon class="st3" points="695.8,683.1 717.4,704.7 738,684.1 748.9,695.1 728.4,715.7 750.1,737.4 738.6,748.9 716.9,727.1 
		696.3,747.7 685.3,736.8 705.9,716.2 684.4,694.6 	"/>
	<polyline class="st2" points="695.8,773 717.4,794.5 738,774 748.9,784.9 728.4,805.5 750.1,827.3 738.6,838.7 716.9,817 
		696.3,837.6 685.3,826.6 705.9,806 684.4,784.5 695.8,773 	"/>
	<polygon class="st3" points="695.8,773 717.4,794.5 738,774 748.9,784.9 728.4,805.5 750.1,827.3 738.6,838.7 716.9,817 
		696.3,837.6 685.3,826.6 705.9,806 684.4,784.5 	"/>
	<path class="st4" d="M1466.7,1397.8c-15.3,0-30.9-0.2-45.9-0.3c-15-0.2-30.5-0.4-45.7-0.4c-0.4,0-0.8,0-1.2-0.1
		c-14.1,0-28.4,0.1-42.2,0.1c-14.2,0.1-29,0.1-43.4,0.1c-21.8,0-39.8-0.1-56.5-0.3c-48.1-0.7-88.8-14.7-121.1-41.5
		c-31.4-26.1-49.1-61.5-52.5-105.1c-3.1-39.1,2.3-69.7,16.9-96.1c22.3-40.3,58.8-66,108.3-76.4c24.1-5,49.1-6.3,68.1-6.8
		c11.7-0.3,24.5-0.5,40.3-0.5c8.6,0,17.3,0,25.7,0.1c8.4,0.1,17.1,0.1,25.6,0.1c6.5,0,12.3,0,17.7-0.1l0.4,0
		c6.8,0,11.9,1.8,15.6,5.5c5.4,5.5,5.4,13.1,5.4,15.5c0,8.7-0.1,18.1-0.1,27.7c1.7-4.8,3.8-9.3,6.2-13.5
		c11.2-19.3,29-30.7,51.6-33.1l2-0.2c8.2-0.9,16.6-1.8,25.2-1.8c9.7,0,20-0.1,32.6-0.1c8.4,0,16.8,0,25.2,0s16.8,0,25.2,0
		c15.2,0,35.3,0,55.7-0.2h0.5c5.4,0,12.3,0.7,17.3,5.8c5,5.2,5.5,12,5.4,16.7c-0.6,24.3-0.3,47.9,0.1,67.9
		c0.1,4.7-0.4,11.5-5.4,16.6c-5.5,5.6-13.4,5.6-16,5.6c-0.4,0-0.8,0-1.1,0c-8.3-0.2-17.3-0.3-28.2-0.3c-7,0-14.1,0-21,0.1
		c-5.9,0-11.8,0.1-17.7,0.1h-0.2c-0.9,0-1.8,0-2.7,0c-0.8,0-1.7,0-2.5,0c-2,0-4.3,0-6.3,0.3c-0.7,0.1-1.2,0.2-1.7,0.3
		c0.2,0.3,0.5,0.7,0.9,1.1c4.8,5.2,9.9,10.1,15.3,15.2c5.3,5,10.7,10.3,15.9,15.8c17.5,18.9,38.4,45.1,45.2,80.1
		c5.5,28.5,0.9,53.1-13.4,71.3c-14,17.8-36.2,28-64.4,29.4C1508,1397.4,1489.3,1397.8,1466.7,1397.8 M1306.6,1182.9
		c-23.7,0-43.3,0.2-61.9,0.6c-9.9,0.2-21.2,2.3-33.6,6.1c-15.8,4.8-23.9,14.2-24.9,28.5c-0.8,11.5-1.4,24.7,0.5,36.8
		c1.2,7.3,5.4,19.9,20.7,23c18.2,3.7,39.2,7.6,59.8,8c22.3,0.4,46.3,0.6,75.4,0.6c18.8,0,38-0.1,56.6-0.2
		c13.6-0.1,27.1-0.1,40.7-0.2c4.3,0,7.9-0.5,10.9-1.5l0.2-0.1c1-0.3,2.7-0.9,4.2-1.4c-0.4-0.8-1-1.6-1.6-2.2
		c-5.8-6.4-12-12.7-18.1-18.8c-8.4-8.6-17.2-17.4-25.2-26.9c-16.7-19.6-27.1-39.3-31.5-59.9c-0.5,0.7-1.1,1.4-1.8,2.1
		c-5,5.1-11.9,5.6-16.6,5.6h-0.4C1341,1183,1323.8,1182.9,1306.6,1182.9z"/>
	<path class="st1" d="M1291.8,1080.5c17.1,0,34.2,0.2,51.2,0.2c5.9,0,11.9,0,17.8-0.1c0.1,0,0.2,0,0.3,0c8.1,0,10.9,3.2,10.8,10.9
		c-0.1,23.5-0.2,47,0.2,70.5c0.1,8.7-3.8,11-11.9,11c-0.1,0-0.2,0-0.3,0c-17.8-0.1-35.7-0.2-53.5-0.2c-20.7,0-41.4,0.2-62.2,0.6
		c-12.2,0.3-24.7,2.9-36.4,6.5c-18.1,5.5-30.6,17.5-32,37.5c-0.9,13-1.4,26.3,0.6,39.1c2.6,15.8,12.6,28,28.7,31.2
		c20.3,4.1,41,7.8,61.6,8.2c25.2,0.5,50.4,0.6,75.6,0.6c32.4,0,64.9-0.2,97.3-0.3c4.7,0,9.6-0.5,14-2c4.5-1.5,11.1-3.6,12.1-6.9
		c1.2-3.6-2-9.8-5.1-13.2c-14.1-15.4-29.6-29.6-43.1-45.4c-17.3-20.3-29.9-43.6-31.4-70.8c-1.6-29.7,11.4-70.6,54.4-75.2
		c8.7-0.9,17.4-1.9,26.2-2c10.8,0,21.7-0.1,32.5-0.1c16.8,0,33.7,0,50.5,0c18.6,0,37.2,0,55.8-0.2c0.2,0,0.3,0,0.4,0
		c9,0,12.8,2.4,12.6,12.2c-0.5,22.8-0.3,45.5,0.1,68.3c0.2,8.7-2.8,12-11.4,12c-0.3,0-0.6,0-0.9,0c-9.5-0.2-19-0.3-28.5-0.3
		c-12.9,0-25.8,0.1-38.7,0.2c-0.1,0-0.2,0-0.2,0c-1.7,0-3.5,0-5.2,0c-2.6,0-5.2,0.1-7.8,0.4c-11.8,1.7-14.9,9.4-6.8,18.2
		c9.9,10.8,21.2,20.3,31.2,31.1c20,21.7,36.9,45.5,42.7,75.2c9.8,50.4-15.6,86.1-68.4,88.7c-19.4,0.9-38.8,1.2-58.2,1.2
		c-30.5,0-61.1-0.7-91.6-0.7c0,0,0-0.1,0-0.1c-28.9,0-57.9,0.2-86.8,0.2c-18.8,0-37.6-0.1-56.4-0.4c-42.3-0.6-81.7-11.6-114.8-39.2
		c-30.5-25.4-45.8-58.8-48.9-98.1c-2.5-31.5,0.1-62.2,15.7-90.4c22.2-40.2,57.9-62.3,101.6-71.4c21.7-4.5,44.2-6,66.3-6.6
		C1265.2,1080.6,1278.5,1080.5,1291.8,1080.5 M1291.8,1060.3c-15.8,0-28.7,0.2-40.5,0.5c-19.5,0.6-45,1.8-69.9,7
		c-52.6,11-91.3,38.3-115.1,81.4c-15.6,28.2-21.4,60.6-18.2,101.8c3.6,46.4,22.5,84.2,56.1,112.1c17.9,14.8,38.3,26.1,60.6,33.3
		c20.3,6.6,42.8,10.1,66.8,10.5c16.8,0.2,34.8,0.4,56.7,0.4c14.5,0,29.2-0.1,43.5-0.1c13.7-0.1,27.8-0.1,41.7-0.1
		c0.6,0,1.1,0.1,1.7,0.1c15.1,0,30.6,0.2,45.5,0.4c15.1,0.2,30.7,0.3,46,0.3c22.8,0,41.6-0.4,59.2-1.3c31.2-1.5,56-13,71.9-33.2
		c8.2-10.4,13.6-22.7,16.1-36.6c2.4-13.2,2.2-27.6-0.8-42.8c-7.3-37.6-29.3-65.2-47.7-85.1c-5.2-5.6-10.6-10.8-15.9-15.9
		c2.6,0,5.1,0,7.7,0c6.9,0,14-0.1,21-0.1c10.8,0,19.7,0.1,28,0.3c0.5,0,0.9,0,1.4,0c9.8,0,17.6-2.9,23.2-8.7
		c8.6-8.7,8.4-20.1,8.3-23.9c-0.3-19.8-0.6-43.4,0-67.5c0.1-4.3-0.3-8-1.2-11.4c-1.3-4.9-3.7-9.2-7-12.6c-7.7-7.9-17.7-8.8-24.5-8.8
		c-0.2,0-0.4,0-0.6,0c-20.3,0.2-40.4,0.2-55.6,0.2c-8.4,0-16.8,0-25.2,0c-8.4,0-16.8,0-25.3,0c-12.6,0-22.9,0-32.6,0.1
		c-9.1,0-17.8,1-26.2,1.9l-2,0.2c-13.5,1.4-25.7,5.8-36.1,12.9c-3.9,2.7-7.6,5.8-11,9.2c-1-6.4-3.7-11.7-7.8-15.8
		c-5.6-5.6-13.2-8.4-22.7-8.4c-0.2,0-0.3,0-0.5,0c-5.4,0.1-11.2,0.1-17.6,0.1c-8.5,0-17.2,0-25.5-0.1
		C1309.1,1060.4,1300.4,1060.3,1291.8,1060.3z M1360.3,1193.2c2.2,0,7.1,0,12.4-1.7c1.5,4.4,3.2,8.7,5.2,12.9
		c5.9,12.6,14.2,25.2,24.6,37.4c8.3,9.7,17.2,18.7,25.7,27.4c2.3,2.3,4.5,4.6,6.7,6.9c-12,0-24.1,0.1-35.9,0.1
		c-18.5,0.1-37.7,0.2-56.5,0.2c-29.1,0-53-0.2-75.2-0.6c-19.7-0.4-40.3-4.2-58-7.8c-7.1-1.4-11.4-6.4-12.7-14.7
		c-1.8-11-1.2-23.6-0.4-34.5c0.9-12.7,9.4-17,17.8-19.6c11.5-3.5,21.9-5.4,30.9-5.6c18.5-0.4,38.1-0.6,61.7-0.6
		c17.2,0,34.3,0.1,53.3,0.2H1360.3z"/>
	<path class="st4" d="M464,1396.4c-5.6,0-10.1-4.5-10.1-10.1v-203.5c-2,0-3.9,0-5.9,0c-4.9,0-9.7,0-14.5,0c-8.1,0-14.6,0.1-20.6,0.2
		c-0.3,0-0.6,0-1,0c-2.4,0-9.6,0-14.8-5.3c-3.5-3.6-5.2-8.5-5.2-14.9c0.2-21,0.2-43.3,0-72.5c0-6.3,1.6-11,5.1-14.5
		c5.2-5.2,12.4-5.2,14.8-5.2c5.4,0,10.7,0,16,0c0,0,0.1,0,0.1,0c21,0,42.3-0.1,62.9-0.1c20.6-0.1,42-0.1,63-0.1
		c38.8,0,70.4,0.2,99.3,0.8c44,0.8,75.9,16.3,94.8,46c25.2,39.7,28.6,82.1,9.4,119.4c-9.8,19.1-23.8,33.9-41.6,44
		c-16.9,9.6-36.8,14.7-59.1,15.1c-11.6,0.2-23.3,0.3-34.8,0.3c-12.8,0-25.6-0.1-38.2-0.4c-0.2,0-0.5,0-0.7,0c-0.7,0-1.3,0-1.7,0.1
		c0,0.5-0.1,1.2-0.1,2.2c0.4,21.1,0.3,42.7,0.2,63.5c0,8.3-0.1,16.7-0.1,25.1c0,5.6-4.5,10.1-10.1,10.1L464,1396.4 M581.7,1202.8
		c10.2,0.2,21.7,0.4,33,0.4c12.5,0,23.5-0.2,33.7-0.7c1.3-0.2,4.1-1.7,5.5-2.9c1.3-9.5,0.9-19.2-1.2-27.5c-1.3-1.5-5.1-3.7-6.8-3.8
		c-9.8-0.5-20.2-0.7-33.8-0.7c-6.5,0-13,0.1-19.8,0.1c-3.6,0-7.2,0.1-10.9,0.1c0,0.9,0,1.8,0,2.7
		C581.5,1181.6,581.4,1192.3,581.7,1202.8z"/>
	<path class="st1" d="M554,1080.4c33,0,66.1,0.2,99.1,0.8c33.9,0.6,66.8,10.3,86.5,41.3c21.8,34.3,27.8,72.8,9,109.4
		c-18.3,35.6-51.4,52.9-91.9,53.7c-11.5,0.2-23.1,0.3-34.7,0.3c-12.7,0-25.3-0.1-38-0.4c-0.3,0-0.6,0-0.9,0c-8.8,0-12,3-11.8,12.5
		c0.5,29.3,0.2,58.5,0.2,88.4c-36,0-71.1,0-107.4,0c0-70.7,0-141.3,0-213.5c-10.7,0-20.7-0.1-30.4-0.1c-7.1,0-14,0.1-20.9,0.2
		c-0.2,0-0.5,0-0.7,0c-7,0-10-2.6-9.9-10.1c0.2-24.2,0.2-48.4,0-72.7c0-7,2.7-9.6,9.8-9.6c0,0,0,0,0,0c5.4,0,10.7,0,16.1,0
		C470,1080.6,512,1080.4,554,1080.4 M614.7,1213.3c11.4,0,22.8-0.2,34.2-0.7c5.3-0.2,14.1-5.8,14.8-9.8c1.7-11,1.5-23-1.3-33.8
		c-1.2-4.8-10.2-10.5-15.9-10.7c-11.4-0.6-22.8-0.7-34.3-0.7c-13.3,0-26.8,0.2-40.7,0.2c0,17.2-0.3,32.8,0.3,48.5
		c0.1,2.4,4.5,6.7,6.9,6.7C590.7,1213.1,602.7,1213.3,614.7,1213.3 M554,1060.2c-21,0-42.4,0.1-63,0.1c-20.6,0.1-41.9,0.1-62.9,0.1
		c-5.4,0-10.7,0-16.1,0h-0.1c-9.2,0-16.6,2.8-22,8.2c-5.4,5.4-8.1,12.7-8,21.7c0.2,29.1,0.2,51.4,0,72.4c-0.1,9.2,2.6,16.6,8.1,22.1
		c5.4,5.5,12.9,8.3,22,8.3c0.4,0,0.8,0,1.2,0c5.9-0.1,12.4-0.2,20.4-0.2c3.4,0,6.8,0,10.2,0v193.4c0,11.1,9,20.2,20.2,20.2h107.4
		c11.1,0,20.2-9,20.2-20.2c0-8.4,0-16.9,0.1-25.1c0.1-18.2,0.1-36.9-0.1-55.5c10.1,0.2,20.3,0.3,30.4,0.3c11.6,0,23.3-0.1,35-0.3
		c49.6-0.9,88.5-23.9,109.5-64.6c20.9-40.6,17.4-86.5-9.9-129.4c-20.8-32.7-55.5-49.8-103.1-50.7
		C624.5,1060.4,592.9,1060.2,554,1060.2z M591.6,1177.8c0.3,0,0.6,0,0.9,0c6.8-0.1,13.2-0.1,19.7-0.1c12.6,0,22.4,0.2,31.6,0.6
		c0.8,4.5,1,9.4,0.7,14.3c-9.1,0.4-18.8,0.6-29.8,0.6c-7.7,0-15.6-0.1-23.1-0.2C591.5,1188,591.5,1182.9,591.6,1177.8z"/>
	<path class="st4" d="M780,1396.2c-5.4,0-9.8-4.2-10.1-9.6c0-1.1-0.1-2.1-0.2-3.2c-0.2-2.5-0.3-5.1-0.3-7.8c0-24.2,0-48.4,0-72.6
		c0-68.9,0-140.2-0.3-210.3c0-5.3,0.6-12,5.4-16.9c4.8-4.8,11.5-5.5,16.8-5.5l0.3,0c45.5,0.2,90.2,0.2,131.8,0.2
		c12.1,0,60.5,0,72.7,0c8.2,0,16.3,0,24.5,0c8.7,0,15,0,19.7,4.8c4.7,4.8,4.7,10.7,4.7,19.7c0,6.5-0.1,13-0.1,19.4
		c-0.1,14.9-0.2,30.2,0.3,45.2c0.2,4.9-0.2,12.1-5.2,17.4c-5,5.2-12.1,5.9-17.6,5.9h-0.6c-16.2-0.2-33.6-0.2-54.7-0.2
		c-14.1,0-28.1,0-42.2,0.1c-11.7,0-23.4,0.1-35.1,0.1h-2.8v13.9h90c5.6,0,10.1,4.5,10.1,10.1v53.6c0,5.6-4.5,10.1-10.1,10.1h-89.9
		v14.9H1059c5.6,0,10.1,4.5,10.1,10.1v90.5c0,5.6-4.5,10.1-10.1,10.1L780,1396.2"/>
	<path class="st1" d="M791.4,1080.4c0.1,0,0.2,0,0.3,0c44,0.2,88,0.2,132,0.2c24.3,0,48.5,0,72.8,0c8.1,0,16.2,0,24.2,0
		c14.4,0,14.4,0.1,14.4,14.5c0,21.7-0.6,43.3,0.3,65c0.4,10.4-3.4,12.8-12.8,12.8c-0.2,0-0.3,0-0.5,0c-18.3-0.2-36.6-0.2-54.9-0.2
		c-25.7,0-51.5,0.1-77.2,0.1c-1.4,0-2.9,0-4.4,0c-2.6,0-5.4,0-8.5,0c0,12,0,22.4,0,34.1c33.5,0,66.3,0,100.1,0c0,18.2,0,35.2,0,53.6
		c-33,0-66.2,0-100,0c0,12.2,0,23,0,35.1c60.4,0,120.7,0,181.9,0c0,30.7,0,60.1,0,90.5c-92.8,0-185.5,0-279,0
		c-0.2-3.4-0.5-7-0.5-10.5c0-94.3,0.1-188.7-0.3-283C779.2,1082.9,782.1,1080.4,791.4,1080.4 M791.3,1060.3c-4.3,0-15.5,0-23.9,8.4
		c-7.6,7.6-8.4,17.4-8.4,24c0.3,70.1,0.3,141.3,0.3,210.3c0,24.2,0,48.4,0,72.6c0,3,0.2,5.9,0.3,8.5c0.1,1,0.1,2,0.2,3
		c0.5,10.8,9.4,19.2,20.2,19.2h279c11.1,0,20.2-9,20.2-20.2v-90.5c0-11.1-9-20.2-20.2-20.2h-68.4c4-3.7,6.6-9,6.6-14.9V1207
		c0-5.4-2.2-10.4-5.7-14c10.8,0,20.7,0.1,30.2,0.2c0.2,0,0.5,0,0.7,0c4.5,0,16.2,0,24.9-9c8.7-9,8.2-20.9,8.1-24.8
		c-0.6-14.7-0.4-30-0.3-44.7c0.1-6.4,0.1-12.9,0.1-19.5c0-9.8,0-19.1-7.6-26.8c-4.1-4.2-9.6-6.7-16.3-7.5c-3.2-0.4-6.6-0.4-10.6-0.4
		c-8.1,0-16.2,0-24.2,0c-12.1,0-24.3,0-36.4,0c-12.1,0-24.3,0-36.4,0c-41.6,0-86.4,0-131.8-0.2L791.3,1060.3
		C791.4,1060.3,791.3,1060.3,791.3,1060.3z"/>
	<path class="st4" d="M924.9,1062c-2.2,0-4.4-0.7-6.2-2.2c-3-2.4-4.2-6.4-3.2-10.1c0.7-2.4,1.2-4.4,1.6-6.2c0.9-3.8,1.7-7,3.4-10.3
		c8.1-15.5,16.2-30.5,24.2-44.4c2.8-4.8,8.7-10.1,15.3-10.1c6.8-0.1,13.8-0.1,21.4-0.1c16.5,0,33.3,0.2,49.5,0.3l6.2,0.1
		c3.6,0,5.9,1.7,7.7,3c0.7,0.5,1.6,1.1,2.9,2c2.9,1.9,4.6,5.2,4.5,8.6c-0.2,3.5-2.2,6.6-5.3,8.2L929.3,1061
		C928,1061.7,926.4,1062,924.9,1062"/>
	<path class="st1" d="M981.6,988.2c18.5,0,37.1,0.2,55.6,0.3c0.9,0,1.7,1,5.4,3.4c-39.3,20.1-76.8,39.4-117.7,60.3
		c2-7.1,2.5-11.2,4.3-14.7c7.8-14.8,15.7-29.5,24-44.1c1.4-2.4,4.6-5.2,7-5.2C967.4,988.3,974.5,988.2,981.6,988.2 M981.6,968.9
		c-7.7,0-14.7,0-21.5,0.1c-10.5,0.1-19.5,7.6-23.7,15c-8,14-16.2,29.1-24.4,44.7c-2.2,4.3-3.3,8.4-4.2,12.5
		c-0.4,1.8-0.9,3.7-1.5,5.9c-2.1,7.4,0.4,15.4,6.3,20.3c3.5,2.9,7.9,4.4,12.3,4.4c3,0,6-0.7,8.8-2.1l117.7-60.3
		c6.2-3.2,10.2-9.4,10.5-16.3c0.3-6.9-3.1-13.5-8.9-17.2c-1.1-0.7-1.8-1.2-2.5-1.7c-2.3-1.6-6.6-4.7-13.2-4.8l-6.1-0.1
		C1015,969,998.2,968.9,981.6,968.9z"/>
	<path class="st4" d="M340.8,1466l-90.4,60.5l-19.1-28.6l18.1-32.9c5.7-10.9,14.3-24.3,22.2-35.4l-0.2-0.4
		c-11,9.3-23.3,18.2-36.9,27.3l-21.4,14.3l-14.8-22.1l90.4-60.5l17.1,25.6l-19.8,35.4c-6.2,11.4-14.5,25.4-22.5,37.1l0.3,0.5
		c11.8-8.8,25.2-18.2,39.9-28l22.2-14.8L340.8,1466"/>
	<path class="st4" d="M245.3,1359.2l25.3-5.7l13.3,27l-111.5,19.8l-17.2-34.8l83.2-77.2l13.9,28.2l-19.6,17.4L245.3,1359.2
		 M215.3,1347.1l-15.3,13.2c-4.8,4.2-11.8,10-16.8,14.3l0.1,0.3c6.5-1.4,15.2-3.9,21.4-5.2l19.5-4.4L215.3,1347.1z"/>
	<path class="st4" d="M207.1,1285.9c0.9-7.3,0.6-18.6-3.1-28.8c-3.3-9.4-8.2-12.9-13.4-11.1c-4.9,1.7-6.2,7.4-6,20.4
		c0,19.4-5.5,34.3-20.7,39.7c-18.1,6.4-37.5-3.9-46.7-29.8c-4.3-12.2-5.2-21.8-4.6-29.6l24-2c-0.4,5.1-0.6,13.7,3,24
		c3,8.4,7.7,11.9,12.2,10.3c5.2-1.8,5.4-8,5.6-22.7c0.2-20.9,7.2-32.6,21.4-37.7c17.7-6.3,37.7,2.2,48.3,32.1
		c4.4,12.4,5.4,25.5,4.4,32.4L207.1,1285.9"/>
	<polyline class="st4" points="93.7,1190.8 132.9,1182.1 125.2,1147.6 86,1156.3 79.6,1127.9 185.8,1104.2 192.2,1132.6 150.1,1142 
		157.8,1176.5 199.9,1167.1 206.2,1195.6 100,1219.3 93.7,1190.8 	"/>
	<g>
		<g>
			<defs>
				<rect id="SVGID_1_" x="66.6" y="37.1" width="1866.8" height="1925.7"/>
			</defs>
			<clipPath id="SVGID_2_">
				<use xlink:href="#SVGID_1_"  style="overflow:visible;"/>
			</clipPath>
			<polyline class="st5" points="133.4,1023.7 137.3,1062.6 157.2,1060.7 152.9,1017.2 176.6,1014.8 183.9,1087.3 75.6,1098.1 
				68.6,1027.9 92.2,1025.5 96.4,1066.7 113.8,1065 109.9,1026.1 133.4,1023.7 			"/>
		</g>
		<g>
			<defs>
				<rect id="SVGID_3_" x="66.6" y="37.1" width="1866.8" height="1925.7"/>
			</defs>
			<clipPath id="SVGID_4_">
				<use xlink:href="#SVGID_3_"  style="overflow:visible;"/>
			</clipPath>
			<path class="st6" d="M68.4,999.9c-1.1-6.6-2-21-1.8-34.4c0.2-15.4,1.5-24.7,5.9-33.1c4.1-8.4,12-14.5,22.6-14.3
				c9.2,0.2,18,5.3,22.6,18l0.4,0c3.8-13.3,13.8-21.1,26.7-20.9c10.2,0.2,18.2,5.2,23.5,12.6c6,8.3,9.4,21.9,9,45.2
				c-0.2,13.2-1.2,22.8-2.2,28.6L68.4,999.9 M109.2,971.7l0.1-5.8c0.2-12.3-4.1-18.3-11.1-18.5c-6.4-0.1-10.5,4.7-10.7,14.4
				c-0.1,4.9,0.2,7.6,0.5,9.5L109.2,971.7z M155.7,972.4c0.4-2.1,0.4-4.6,0.5-8.4c0.2-9.7-3.6-18-13.1-18.2
				c-9.2-0.2-12.9,8.2-13.1,19.2l-0.1,7L155.7,972.4z"/>
		</g>
	</g>
	<path class="st4" d="M136.7,794c34.7,4.8,53.8,28.8,49.1,62c-4.7,33.4-32.3,48.2-62.2,44c-31.4-4.4-53.4-28.4-48.8-61.4
		C79.7,804,107.9,790,136.7,794 M127.4,869.4c20.3,2.8,33.9-4.3,35.8-18c2-14-10.4-24-29.8-26.8c-18.5-2.6-33.8,3.8-35.7,17.7
		C95.7,856,107.6,866.7,127.4,869.4z"/>
	<path class="st4" d="M201.9,759.9L98.4,726.3l10.6-32.7l37.1-6.1c12.1-2.3,27.9-3.8,41.5-4.5l0.1-0.4c-14.1-2.9-28.8-7-44.2-12.1
		l-24.4-7.9l8.2-25.3l103.5,33.6l-9.5,29.2l-40.1,6.4c-12.8,2.2-28.9,4.4-43,5.3l-0.2,0.5c14.2,3.8,29.9,8.5,46.7,14l25.4,8.2
		L201.9,759.9"/>
	<path class="st4" d="M231.4,539.2c31.5,15.2,42.4,43.9,27.8,74.1c-14.7,30.4-45.5,36-72.7,22.8c-28.5-13.8-42.1-43.4-27.6-73.4
		C174.1,531.2,205.2,526.5,231.4,539.2 M199.4,608.1c18.4,8.9,33.6,6.3,39.6-6.2c6.2-12.8-2.5-26.1-20.2-34.6
		c-16.9-8.2-33.3-6.8-39.4,5.9C173.4,585.6,181.4,599.4,199.4,608.1z"/>
	<path class="st4" d="M298.7,537.2l-36.9-23.8l-73.1-6.3l18.1-28.1l25.6,5.5c8,1.6,13.7,2.9,20.9,4.7l0.2-0.3
		c-4.4-5.4-8.3-10.5-13.1-16.8l-15.8-20.8l17.8-27.6l34.3,64.5l37.9,24.4L298.7,537.2"/>
	<path class="st4" d="M328.1,450.6l15.8,20.6L325,494.7l-65-92.8l24.3-30.2l105.1,42.9l-19.7,24.5l-24-10.4L328.1,450.6
		 M326.4,418.3L308,410c-5.8-2.5-14-6.5-20.1-9.2l-0.2,0.2c4,5.3,10,12.1,13.8,17.2l12.2,15.8L326.4,418.3z"/>
	<path class="st4" d="M346.8,305.1c4.1-5.3,14-15.8,24-24.7c11.4-10.3,19.1-15.7,28.2-18.2c8.9-2.7,18.8-1,25.9,6.8
		c6.1,6.8,8.4,16.8,2.2,28.8l0.3,0.3c12.3-6.2,24.9-4.2,33.5,5.4c6.9,7.6,8.5,16.9,6.8,25.8c-2,10-9.6,21.8-26.9,37.4
		c-9.8,8.8-17.5,14.6-22.5,17.9L346.8,305.1 M395.3,315.8l4.4-3.9c9.1-8.2,10.7-15.5,6-20.7c-4.3-4.7-10.6-4.5-17.8,2
		c-3.6,3.3-5.5,5.3-6.6,6.9L395.3,315.8z M426.4,350.3c1.8-1.2,3.7-2.9,6.5-5.4c7.2-6.5,10.8-14.9,4.4-22
		c-6.2-6.8-14.8-3.8-22.9,3.5l-5.2,4.7L426.4,350.3z"/>
	<path class="st4" d="M430.8,231.9c6-5.8,15.5-13.8,27.4-22.2c13.6-9.6,24.7-14.6,34.9-14.3c8.8,0.3,16.3,4.5,22.5,13.2
		c7.8,11.1,5.1,24.8,0,32.2l0.3,0.5c7.7-1.6,14.9,1.8,22.6,7.9c9,7.1,21.1,18,25.2,20.2l-24.3,17.2c-3.2-1.6-10.4-6.9-20.7-16.1
		c-9.9-8.9-14.8-8.9-22.1-3.6l-3.9,2.7l23.5,33.3l-23.6,16.6L430.8,231.9 M480.6,252.5l6.2-4.4c9-6.3,11-14.4,6.3-21
		s-11.8-7.4-19.7-1.8c-4.5,3.2-6.7,5.1-7.7,6.2L480.6,252.5z"/>
	<path class="st4" d="M586.5,228l6.5,25.1l-26.6,14.2L543,156.5l34.2-18.3l79.9,80.7l-27.8,14.8l-18-19L586.5,228 M597.7,197.6
		L584,182.8c-4.3-4.6-10.3-11.5-14.9-16.4l-0.3,0.1c1.6,6.4,4.4,15.1,5.9,21.3l5,19.4L597.7,197.6z"/>
	<polyline class="st4" points="656.5,202.6 676.7,121.2 676.5,120.7 635.8,136.4 627.1,113.9 703,84.6 709,100.1 689.8,179.9 
		690,180.4 734.3,163.3 743,185.8 662.1,217 656.5,202.6 	"/>
	<polyline class="st4" points="752.9,70.2 783.3,174.7 755.3,182.9 724.9,78.4 752.9,70.2 	"/>
	<polyline class="st4" points="778.6,63.1 807.1,57.2 824.2,139.9 865.2,131.4 870.1,155.3 800.6,169.7 778.6,63.1 	"/>
	<polyline class="st4" points="897.6,42.7 911.1,150.6 882.2,154.3 868.7,46.3 897.6,42.7 	"/>
	<path class="st4" d="M956.2,121.8l-5.3,25.4l-30.1,1l28-109.7l38.8-1.2l35.9,107.7l-31.5,1l-7.8-25L956.2,121.8 M979.7,99.5
		L974,80.1c-1.8-6.1-4.2-14.9-6.1-21.2l-0.3,0c-1.4,6.5-2.7,15.5-4.1,21.7l-4,19.6L979.7,99.5z"/>
	<path class="st4" d="M1034.1,145.4l10.5-108.3l34.2,3.3l14,34.9c4.8,11.3,9.8,26.4,13.3,39.6l0.4,0c-0.2-14.4,0.7-29.6,2.3-45.8
		l2.5-25.6l26.5,2.6l-10.5,108.3l-30.6-3l-14.8-37.8c-4.9-12.1-10.5-27.3-14.4-40.9l-0.6-0.1c-0.7,14.7-1.9,31-3.6,48.6l-2.6,26.6
		L1034.1,145.4"/>
	<path class="st4" d="M1220.9,63.6l28.3,7l-16.1,65.1c-7.6,30.8-25.1,38.6-50.5,32.3c-5.8-1.4-13.2-4.1-18.1-7.2l8.6-22
		c3.2,1.8,7.4,3.7,12,4.8c9.1,2.2,16-0.3,19.7-14.9L1220.9,63.6"/>
	<polyline class="st4" points="1301,86.8 1267.5,190.3 1239.8,181.3 1273.2,77.8 1301,86.8 	"/>
	<path class="st4" d="M1354.2,106.7l-24.5,56.7c-6.5,15.1-5,25.9,5.6,30.4c10.6,4.6,19.2-0.9,26-16.8l24.5-56.7l26.7,11.6
		l-23.8,55.1c-13.3,30.9-35.4,39.8-63.5,27.6c-27.3-11.8-35.2-33-21.3-65.1l23.6-54.4L1354.2,106.7"/>
	<polyline class="st4" points="1448.3,203.7 1439.2,220.3 1401.3,199.3 1410.5,182.8 1448.3,203.7 	"/>
	<path class="st4" d="M1505.6,186.1L1530,202l-36.7,56.2c-17.3,26.6-36.4,28.1-58.3,13.9c-5-3.2-11.2-8.2-14.7-12.7l15.3-17.9
		c2.4,2.8,5.8,5.9,9.8,8.5c7.8,5.1,15.2,5,23.4-7.6L1505.6,186.1"/>
	<polyline class="st4" points="1573.5,234.2 1507.9,321 1484.7,303.5 1550.2,216.7 1573.5,234.2 	"/>
	<polyline class="st4" points="1594.2,282.9 1573.6,264.5 1589.9,246.2 1653.3,303 1637,321.2 1615.9,302.4 1559.7,365.2 
		1538,345.8 1594.2,282.9 	"/>
	<path class="st4" d="M1609.7,372.7c2,7.1,6.6,17.4,13.9,25.4c6.7,7.4,12.6,8.7,16.6,5c3.9-3.5,2.9-9.2-2.3-21.1
		c-7.5-17.9-8.2-33.8,3.8-44.7c14.3-12.9,36.1-10.8,54.6,9.5c8.7,9.6,13.2,18.1,15.6,25.5l-21.3,11.1c-1.6-4.9-4.7-12.9-12.1-21
		c-6-6.6-11.7-8-15.2-4.8c-4.1,3.7-1.9,9.5,3.6,23.1c7.8,19.4,5.9,32.9-5.3,43c-13.9,12.6-35.6,12.5-56.9-11
		c-8.8-9.7-14.8-21.4-16.6-28.1L1609.7,372.7"/>
	<path class="st4" d="M1750.9,416.4l-50.3,35.7c-13.4,9.5-17.7,19.5-11,28.9c6.7,9.4,16.9,9.2,30.9-0.8l50.3-35.7l16.9,23.8
		l-48.9,34.7c-27.4,19.5-50.9,15.7-68.6-9.3c-17.2-24.2-13-46.5,15.5-66.7l48.4-34.3L1750.9,416.4"/>
	<path class="st4" d="M1758.1,587l-25.4,5.4l-13.1-27.2l111.7-18.9l16.9,35l-83.9,76.5l-13.7-28.3l19.7-17.2L1758.1,587 M1788,599.3
		l15.4-13c4.8-4.2,11.9-9.9,16.9-14.2l-0.1-0.3c-6.5,1.3-15.2,3.8-21.5,5l-19.6,4.2L1788,599.3z"/>
	<path class="st4" d="M1833.2,743.2c11.7-4,25.5-8.6,41.7-13.7l-0.1-0.4c-14.8,1.1-31.7,1.6-44.1,1.8l-39.4,1l-6.8-21.8l33.4-20
		c10.3-6.1,24.7-14.1,38.2-21l-0.1-0.3c-14.8,4-30.5,8.3-42.4,11.5l-37.7,10l-8-25.6l105.8-26l11.7,37.4l-25.8,15.6
		c-10.7,6.5-23.5,13.8-35.5,20l0.2,0.5c13.6-1.1,29.3-2.2,41.2-2.5l30.2-0.9l11.4,36.6l-102.2,37.6l-8.4-27L1833.2,743.2"/>
	<path class="st4" d="M1835.4,794.7c-2.2,7.1-3.8,18.2-2,28.9c1.7,9.8,5.9,14.1,11.3,13.2c5.1-0.9,7.3-6.2,9.4-19
		c3.4-19.1,11.3-32.9,27.3-35.6c19-3.2,36.2,10.4,40.8,37.5c2.2,12.8,1.3,22.4-0.6,29.9l-24-2.2c1.2-5,3-13.4,1.2-24.2
		c-1.5-8.8-5.5-13-10.2-12.2c-5.5,0.9-6.7,7-9.5,21.3c-3.8,20.5-12.7,30.9-27.7,33.4c-18.5,3.1-36.7-8.6-42-40
		c-2.2-12.9-0.9-26,1.2-32.7L1835.4,794.7"/>
	<polyline class="st4" points="1905.6,900.3 1903.9,872.6 1928.3,871.2 1933.4,956.1 1909,957.6 1907.3,929.4 1823.1,934.4 
		1821.4,905.3 1905.6,900.3 	"/>
	<polyline class="st4" points="1865.2,1043.5 1866.9,1004.4 1846.9,1003.5 1844.9,1047.2 1821.2,1046.1 1824.4,973.3 1933.1,978.3 
		1929.9,1048.8 1906.1,1047.7 1908,1006.3 1890.5,1005.5 1888.7,1044.6 1865.2,1043.5 	"/>
	<path class="st4" d="M1925.9,1076.1c0,8.3-0.9,20.7-3.2,35.1c-2.6,16.5-6.7,27.9-14.1,35c-6.3,6.1-14.6,8.6-25.1,6.9
		c-13.4-2.1-21.3-13.7-23.1-22.5l-0.6-0.1c-4.2,6.7-11.7,9.4-21.4,10.7c-11.4,1.5-27.6,2.6-32.1,4l4.6-29.4
		c3.4-1.2,12.2-2.6,25.9-3.7c13.3-0.9,16.6-4.4,18-13.3l0.7-4.7l-40.3-6.3l4.5-28.5L1925.9,1076.1 M1876.4,1097.5l-1.2,7.5
		c-1.7,10.8,2.6,17.9,10.7,19.2c8.1,1.3,13.5-3.3,15.1-12.9c0.9-5.4,1-8.3,0.9-9.8L1876.4,1097.5z"/>
	<path class="st4" d="M1907.4,1184.3c-1.1,9.3-3.8,21.5-7.4,33.9c-5.8,20-12.7,31.6-22.8,40c-11.3,9.2-26.4,12.8-45.6,7.3
		c-21.3-6.2-32.8-18.2-37.8-30.8c-5.6-14.1-4.6-32.3,1.4-52.8c3.9-13.4,7.4-22.2,9.8-27.3L1907.4,1184.3 M1817.2,1188.4
		c-0.7,1.4-1.5,3.9-2,5.8c-5.5,18.1,0.6,34.4,24.1,41.2c20.4,5.9,33.6-3.4,38.4-20.2c1.3-4.4,1.7-7.2,1.8-8.7L1817.2,1188.4z"/>
	<path class="st4" d="M1784.8,1294.6l-20.7-15.7l12.1-27.6l87.1,72.4l-15.5,35.6l-112.7-13.8l12.6-28.8l25.9,3.7L1784.8,1294.6
		 M1794.8,1325.3l19.9,3.2c6.3,0.9,15.2,2.6,21.8,3.6l0.1-0.3c-5.2-4-12.8-9.1-17.8-13l-15.9-12.1L1794.8,1325.3z"/>
	<path class="st4" d="M1715.2,1453.5c10.7,6.2,23.1,13.7,37.6,22.7l0.2-0.4c-10.5-10.5-21.8-23-30.1-32.3l-26.5-29.2l12.1-19.3
		l36.9,12.3c11.4,3.8,26.8,9.5,40.9,15.3l0.2-0.3c-12.7-8.6-26.2-17.7-36.4-24.7l-32.2-22l14.2-22.8l88.7,63.3l-20.8,33.3l-28.7-9.4
		c-11.8-3.9-25.8-8.8-38.3-13.9l-0.3,0.5c9.7,9.6,20.8,20.8,28.8,29.6l20.3,22.3l-20.3,32.5l-95.2-53l15-24L1715.2,1453.5"/>
	<polyline class="st4" points="602.5,1729.1 580.3,1774.3 620,1793.8 642.2,1748.6 674.8,1764.7 614.8,1886.7 582.2,1870.7 
		606,1822.3 566.3,1802.8 542.5,1851.2 509.8,1835.1 569.8,1713.1 602.5,1729.1 	"/>
	<path class="st4" d="M731.5,1783.8l-22.3,73.9c-5.9,19.7-2.5,32.8,11.3,37c13.9,4.2,23.7-3.9,29.9-24.5l22.3-73.9l34.9,10.5
		l-21.7,71.8c-12.1,40.2-38.2,54.5-74.8,43.4c-35.6-10.7-48.5-36-35.9-77.7l21.4-71L731.5,1783.8"/>
	<g>
		<g>
			<defs>
				<rect id="SVGID_5_" x="66.6" y="37.1" width="1866.8" height="1925.7"/>
			</defs>
			<clipPath id="SVGID_6_">
				<use xlink:href="#SVGID_5_"  style="overflow:visible;"/>
			</clipPath>
			<path class="st7" d="M812.9,1946.5l17.5-134.8l42.6,5.5l16,44.2c5.6,14.3,11.1,33.4,15,50l0.5,0.1c0.3-18,2.1-37,4.7-57.1
				l4.1-31.9l33,4.3L929,1961.6l-38.1-4.9l-17-47.8c-5.6-15.3-12-34.5-16.4-51.7l-0.7-0.1c-1.5,18.3-3.7,38.7-6.5,60.6l-4.3,33.1
				L812.9,1946.5"/>
		</g>
		<g>
			<defs>
				<rect id="SVGID_7_" x="66.6" y="37.1" width="1866.8" height="1925.7"/>
			</defs>
			<clipPath id="SVGID_8_">
				<use xlink:href="#SVGID_7_"  style="overflow:visible;"/>
			</clipPath>
			<path class="st8" d="M1092.1,1953.6c-10.1,3.8-28.9,8.6-46.7,9.2c-26.7,0.8-45.2-5.2-57.8-16.5c-13.2-11.6-20.4-29-20.9-48.4
				c-1.3-47.2,33.1-72.4,77.1-73.8c18.3-0.6,32.4,2.2,39.6,5.4l-6.4,29.3c-7.8-3-17-5.2-32.5-4.7c-22.4,0.7-40.6,13.1-39.7,40.7
				c0.8,25.3,17.7,39.5,40,38.8c5-0.2,9.7-0.8,11.4-1.5l-0.7-23.4l-18.2,0.6l-0.9-28.3l53.3-1.7L1092.1,1953.6"/>
		</g>
	</g>
	<path class="st4" d="M1163.8,1917.2l-1.5,32.4l-37,7.2l12.9-141l47.6-9.2l65.6,125.8l-38.6,7.5l-14.5-29.3L1163.8,1917.2
		 M1188.3,1885l-10.8-22.8c-3.5-7.1-8.1-17.5-11.7-25l-0.4,0.1c-0.5,8.3-0.3,19.6-0.8,27.6l-1.1,25L1188.3,1885z"/>
	<path class="st4" d="M1241.3,1795.4c9.2-5,23.2-11.4,40.4-17.5c19.6-7,34.7-9.3,46.9-5.5c10.4,3.3,18.1,10.9,22.6,23.4
		c5.7,16-2.2,31.6-10.9,38.8l0.2,0.7c9.8,0.6,17.3,7.2,24.6,17.1c8.5,11.7,19.3,28.8,23.6,32.8l-35.1,12.5
		c-3.3-3-10.2-11.8-19.5-26.3c-8.9-14.1-14.8-15.6-25.4-11.8l-5.6,2l17.1,48l-34,12.1L1241.3,1795.4 M1294.4,1837l8.9-3.2
		c12.9-4.6,18.1-13.6,14.7-23.2c-3.4-9.6-11.7-12.8-23.1-8.8c-6.5,2.3-9.8,3.8-11.3,4.9L1294.4,1837z"/>
	<path class="st4" d="M1443.2,1858.3l-25.5-48.7l-75.6-51.9l37-19.4l24.4,21.8c7.7,6.7,13.1,11.6,19.8,18l0.4-0.2
		c-1.4-8.6-2.6-16.5-3.9-26.4l-4.3-32.3l36.4-19.1l-2.5,91.3l26.1,49.9L1443.2,1858.3"/>
</g>
</svg>
