<?xml version="1.0" encoding="utf-8"?>
<!-- Generator: Adobe Illustrator 25.0.1, SVG Export Plug-In . SVG Version: 6.00 Build 0)  -->
<svg version="1.1" id="Layer_1" xmlns="http://www.w3.org/2000/svg" xmlns:xlink="http://www.w3.org/1999/xlink" x="0px" y="0px"
	 viewBox="0 0 2000 2000" style="enable-background:new 0 0 2000 2000;" xml:space="preserve">
<style type="text/css">
	.st0{fill:#C71617;}
	.st1{fill:#FFFFFF;}
	.st2{fill:#12100B;}
	.st3{fill:none;stroke:#1D1D1B;stroke-width:3;}
	.st4{fill:#1D1D1B;}
	.st5{clip-path:url(#SVGID_2_);fill:#1D1D1B;}
	.st6{clip-path:url(#SVGID_4_);fill:#1D1D1B;}
</style>
<g>
	<path class="st0" d="M1756.94,969.69c0-65.18-8.18-128.45-23.56-188.85l-280.55-28.73l261.66-33.95
		c-30.29-86.76-75.79-166.38-133.33-235.65l-275.01,97.56l235.34-141.73c-30.17-31.07-62.94-59.6-97.99-85.2l-186.72,161.61
		l147.52-188.42c-48.39-30.93-100.49-56.55-155.5-76.04l-121.9,234.46l74.45-249.55c-52.71-14.85-107.72-24.19-164.39-27.34
		l-35.02,245.44L966.9,207.88c-56.67,3.15-111.68,12.49-164.38,27.34l74.44,249.55L755.06,250.3
		c-55.01,19.49-107.11,45.11-155.5,76.04l147.52,188.42L560.36,353.15c-35.05,25.6-67.83,54.12-97.99,85.2l235.34,141.73
		L422.7,482.52c-57.54,69.27-103.04,148.89-133.33,235.65l261.66,33.95l-280.54,28.73c-15.38,60.39-23.57,123.67-23.57,188.85
		c0,20.55,0.82,40.89,2.42,61.03l213.11-53.03l-205.6,115.34c15.33,94.31,47.95,182.8,94.49,262.15l375.42-345.01l-332.2,410.72
		c51.94,70.72,115.78,132.15,188.57,181.35l336.74-642.77l-257.15,689.81c91.63,46.91,193.99,75.83,302.44,82.11l36.78-764.69
		l36.78,764.69c108.44-6.28,210.8-35.2,302.43-82.11l-257.16-689.81l336.75,642.77c72.78-49.2,136.63-110.63,188.56-181.35
		l-332.19-410.72l375.42,345.01c46.55-79.34,79.17-167.84,94.5-262.15l-205.6-115.34l213.11,53.03
		C1756.11,1010.58,1756.94,990.24,1756.94,969.69"/>
	<path class="st1" d="M870.41,706.42v-1.15c38.66-13.57,53.98-38.98,53.98-65.09c0-30.24-18.9-52.55-44.84-63.82
		c-25.94-12.08-54.47-15.18-101.52-15.18c-41.13,0-85.1,3.22-105.23,6.67v0h-20.12v56.49h20.12v247.68
		c17.91,2.65,47.43,5.06,87.69,5.06c71.39,0,112.76-10.35,137.83-27.83c22.11-15.53,37.3-38.41,37.3-67.62
		C935.62,744.83,911.17,716.66,870.41,706.42 M761.1,622.71c5.8-1.04,14.2-1.84,29.15-1.84c29.89,0,44.71,11.5,44.71,29.67
		c0,20.01-18.28,32.43-55.95,32.43H761.1V622.71z M786.79,816.25c-11.49,0-19.14,0-25.69-0.92v-73.71h21.37
		c33.47,0,59.28,10.12,59.28,36.34C841.75,805.21,816.44,816.25,786.79,816.25z"/>
	<path class="st1" d="M1329.48,563.6h-89.17v191.47c0,42.78-18.77,54.63-47.43,54.63c-14.45,0-28.41-2.3-39.28-5.18l-9.39,66.7
		c16.67,5.17,40.88,7.47,59.04,7.47c79.91,0,126.22-33.47,126.22-123.86V620.09h20.18V563.6H1329.48"/>
	<path class="st1" d="M1147.58,620.09V563.6h-109.32v191.47c0,42.78-18.78,54.63-47.43,54.63c-14.45,0-28.41-2.3-39.28-5.18
		l-9.39,66.7c16.67,5.17,40.88,7.47,59.03,7.47c79.91,0,126.22-33.47,126.22-123.86V620.09H1147.58"/>
	<polyline class="st2" points="695.85,592.49 717.4,614.04 737.98,593.46 748.94,604.42 728.36,625 750.12,646.76 738.64,658.23 
		716.89,636.48 696.31,657.06 685.34,646.09 705.92,625.51 684.37,603.96 695.85,592.49 	"/>
	<polygon class="st3" points="695.85,592.49 717.4,614.04 737.98,593.46 748.94,604.42 728.36,625 750.12,646.76 738.64,658.23 
		716.89,636.48 696.31,657.06 685.34,646.09 705.92,625.51 684.37,603.96 	"/>
	<polyline class="st2" points="695.85,683.14 717.4,704.69 737.98,684.11 748.94,695.08 728.36,715.66 750.12,737.41 738.64,748.89 
		716.89,727.14 696.31,747.72 685.34,736.75 705.92,716.17 684.37,694.62 695.85,683.14 	"/>
	<polygon class="st3" points="695.85,683.14 717.4,704.69 737.98,684.11 748.94,695.08 728.36,715.66 750.12,737.41 738.64,748.89 
		716.89,727.14 696.31,747.72 685.34,736.75 705.92,716.17 684.37,694.62 	"/>
	<polyline class="st2" points="695.85,773 717.4,794.55 737.98,773.97 748.94,784.93 728.36,805.51 750.12,827.27 738.64,838.74 
		716.89,816.99 696.31,837.57 685.34,826.6 705.92,806.02 684.37,784.47 695.85,773 	"/>
	<polygon class="st3" points="695.85,773 717.4,794.55 737.98,773.97 748.94,784.93 728.36,805.51 750.12,827.27 738.64,838.74 
		716.89,816.99 696.31,837.57 685.34,826.6 705.92,806.02 684.37,784.47 	"/>
	<path class="st4" d="M1466.7,1397.78c-15.31,0-30.86-0.18-45.9-0.35c-14.99-0.18-30.47-0.36-45.67-0.36c-0.4,0-0.8-0.02-1.19-0.06
		c-14.07,0-28.36,0.05-42.19,0.1c-14.24,0.05-28.96,0.1-43.45,0.1c-21.8,0-39.76-0.11-56.51-0.35
		c-48.06-0.7-88.79-14.66-121.09-41.5c-31.43-26.11-49.11-61.49-52.53-105.1c-3.07-39.13,2.31-69.68,16.92-96.11
		c22.3-40.33,58.75-66.04,108.35-76.38c24.08-5.02,49.05-6.29,68.11-6.83c11.73-0.33,24.53-0.48,40.26-0.48
		c8.56,0,17.26,0.04,25.67,0.08c8.38,0.05,17.06,0.09,25.57,0.09c6.48,0,12.27-0.02,17.72-0.07l0.39-0.01
		c6.8,0,11.88,1.79,15.55,5.48c5.43,5.46,5.41,13.05,5.39,15.54c-0.03,8.74-0.07,18.08-0.07,27.74c1.72-4.79,3.8-9.31,6.22-13.49
		c11.19-19.26,29.01-30.71,51.55-33.1l2.03-0.22c8.16-0.87,16.59-1.78,25.15-1.81c9.66-0.03,20.01-0.05,32.57-0.05
		c8.42,0,16.83,0.01,25.24,0.02c8.41,0.01,16.83,0.01,25.23,0.01c15.24,0,35.34-0.02,55.69-0.19h0.53c5.43,0,12.31,0.65,17.31,5.78
		c5.04,5.15,5.47,12.02,5.36,16.74c-0.56,24.28-0.29,47.94,0.05,67.88c0.07,4.69-0.4,11.52-5.44,16.64
		c-5.54,5.64-13.42,5.64-16,5.64c-0.37,0-0.75,0-1.14-0.01c-8.32-0.21-17.29-0.31-28.22-0.31c-7,0-14.12,0.04-21.01,0.07
		c-5.89,0.03-11.78,0.06-17.68,0.08h-0.25c-0.9,0-1.79-0.01-2.69-0.02c-0.84-0.01-1.67-0.02-2.51-0.02c-1.97,0-4.26,0.04-6.34,0.33
		c-0.68,0.1-1.25,0.22-1.73,0.35c0.24,0.31,0.53,0.67,0.9,1.07c4.79,5.2,9.88,10.06,15.26,15.22c5.28,5.04,10.73,10.27,15.87,15.83
		c17.46,18.9,38.37,45.09,45.17,80.13c5.51,28.48,0.9,53.14-13.36,71.31c-13.98,17.83-36.25,27.99-64.41,29.37
		C1507.98,1397.39,1489.32,1397.78,1466.7,1397.78 M1306.55,1182.86c-23.65,0-43.33,0.2-61.95,0.63
		c-9.93,0.23-21.25,2.26-33.64,6.05c-15.75,4.82-23.89,14.15-24.86,28.53c-0.77,11.48-1.44,24.73,0.52,36.79
		c1.19,7.26,5.45,19.91,20.72,22.98c18.15,3.65,39.24,7.58,59.82,7.97c22.29,0.42,46.27,0.62,75.45,0.62
		c18.84,0,38.02-0.08,56.56-0.16c13.57-0.06,27.13-0.11,40.69-0.15c4.26-0.01,7.92-0.51,10.89-1.48l0.17-0.06
		c1.04-0.34,2.69-0.88,4.16-1.44c-0.44-0.78-0.99-1.59-1.58-2.24c-5.81-6.37-12.03-12.69-18.05-18.8
		c-8.45-8.58-17.19-17.45-25.23-26.88c-16.74-19.61-27.14-39.33-31.53-59.86c-0.52,0.73-1.11,1.43-1.75,2.08
		c-5,5.06-11.88,5.64-16.62,5.64h-0.36C1340.97,1182.97,1323.84,1182.86,1306.55,1182.86z"/>
	<path class="st1" d="M1291.8,1080.51c17.08,0,34.17,0.17,51.25,0.17c5.94,0,11.88-0.02,17.82-0.07c0.1-0.01,0.19-0.01,0.3-0.01
		c8.05,0,10.88,3.22,10.85,10.89c-0.1,23.5-0.15,47,0.15,70.5c0.11,8.72-3.78,11.02-11.86,11.02c-0.1,0-0.19,0-0.29,0
		c-17.83-0.12-35.65-0.23-53.49-0.23c-20.72,0-41.45,0.15-62.16,0.63c-12.19,0.28-24.65,2.91-36.36,6.5
		c-18.11,5.54-30.63,17.54-31.97,37.49c-0.88,12.98-1.44,26.35,0.63,39.09c2.57,15.8,12.55,28,28.68,31.24
		c20.29,4.08,41.01,7.78,61.61,8.17c25.21,0.48,50.42,0.62,75.64,0.62c32.43,0,64.86-0.24,97.28-0.31
		c4.69-0.01,9.59-0.53,14.01-1.98c4.52-1.48,11.06-3.59,12.14-6.91c1.15-3.56-1.99-9.81-5.08-13.21
		c-14.07-15.41-29.55-29.58-43.07-45.43c-17.32-20.3-29.92-43.61-31.38-70.81c-1.61-29.73,11.43-70.6,54.38-75.16
		c8.69-0.92,17.43-1.93,26.16-1.97c10.83-0.04,21.67-0.05,32.5-0.05c16.83,0,33.66,0.02,50.49,0.02c18.59,0,37.19-0.03,55.79-0.19
		c0.15,0,0.3,0,0.45,0c8.97,0,12.82,2.36,12.58,12.19c-0.52,22.76-0.34,45.53,0.05,68.29c0.15,8.68-2.82,12.02-11.36,12.02
		c-0.28,0-0.58,0-0.88-0.01c-9.49-0.24-18.98-0.31-28.47-0.31c-12.9,0-25.81,0.13-38.71,0.15c-0.07,0-0.15,0-0.22,0
		c-1.74,0-3.48-0.03-5.21-0.03c-2.61,0-5.21,0.07-7.76,0.44c-11.79,1.69-14.94,9.4-6.83,18.22c9.92,10.78,21.2,20.3,31.15,31.06
		c20.04,21.69,36.91,45.48,42.67,75.2c9.77,50.45-15.56,86.09-68.37,88.69c-19.38,0.95-38.78,1.24-58.21,1.24
		c-30.5,0-61.06-0.72-91.56-0.72c0-0.02,0-0.05,0-0.06c-28.94,0-57.88,0.19-86.81,0.19c-18.8,0-37.59-0.08-56.39-0.36
		c-42.29-0.61-81.65-11.64-114.79-39.17c-30.54-25.38-45.83-58.79-48.91-98.14c-2.48-31.51,0.08-62.2,15.69-90.45
		c22.22-40.18,57.94-62.28,101.58-71.38c21.65-4.52,44.16-5.99,66.34-6.62C1265.16,1080.62,1278.47,1080.51,1291.8,1080.51
		 M1291.8,1060.34c-15.83,0-28.71,0.15-40.54,0.49c-19.48,0.55-45.03,1.85-69.89,7.04c-52.61,10.97-91.34,38.35-115.12,81.37
		c-15.61,28.25-21.38,60.59-18.15,101.79c3.64,46.44,22.53,84.15,56.14,112.08c17.88,14.85,38.27,26.07,60.61,33.35
		c20.29,6.6,42.76,10.13,66.78,10.47c16.81,0.25,34.82,0.36,56.68,0.36c14.5,0,29.23-0.05,43.47-0.1c13.65-0.05,27.76-0.1,41.65-0.1
		c0.56,0.04,1.11,0.06,1.69,0.06c15.13,0,30.59,0.19,45.54,0.36c15.07,0.18,30.65,0.35,46.02,0.35c22.8,0,41.61-0.4,59.2-1.27
		c31.17-1.53,56.01-13.03,71.86-33.22c8.17-10.4,13.59-22.73,16.12-36.62c2.41-13.22,2.15-27.63-0.8-42.83
		c-7.28-37.55-29.29-65.18-47.66-85.06c-5.21-5.63-10.63-10.84-15.88-15.87c2.58-0.01,5.14-0.02,7.67-0.04
		c6.88-0.03,14-0.07,20.97-0.07c10.85,0,19.73,0.1,27.96,0.3c0.48,0.02,0.94,0.02,1.39,0.02c9.75,0,17.55-2.91,23.2-8.65
		c8.59-8.74,8.39-20.14,8.33-23.89c-0.33-19.84-0.61-43.36-0.04-67.47c0.1-4.26-0.29-7.99-1.19-11.4
		c-1.31-4.93-3.67-9.18-7.04-12.62c-7.72-7.9-17.7-8.81-24.52-8.81c-0.21,0-0.41,0-0.62,0c-20.31,0.17-40.4,0.19-55.62,0.19
		c-8.42,0-16.82,0-25.23-0.01c-8.43-0.01-16.84-0.02-25.27-0.02c-12.56,0-22.9,0.02-32.58,0.05c-9.07,0.04-17.77,0.97-26.18,1.86
		l-2.03,0.22c-13.52,1.44-25.65,5.77-36.08,12.89c-3.95,2.69-7.61,5.75-10.98,9.18c-1.04-6.36-3.66-11.67-7.81-15.84
		c-5.58-5.6-13.22-8.45-22.69-8.45c-0.17,0-0.33,0-0.5,0.01c-5.41,0.05-11.17,0.07-17.62,0.07c-8.5,0-17.16-0.04-25.53-0.09
		C1309.11,1060.38,1300.39,1060.34,1291.8,1060.34z M1360.31,1193.18c2.21,0,7.06,0,12.42-1.73c1.49,4.36,3.24,8.68,5.24,12.95
		c5.88,12.59,14.15,25.16,24.57,37.37c8.28,9.71,17.15,18.71,25.72,27.41c2.29,2.32,4.54,4.6,6.73,6.86
		c-11.99,0.02-24.1,0.08-35.86,0.13c-18.53,0.08-37.7,0.16-56.52,0.16c-29.12,0-53.04-0.2-75.25-0.62
		c-19.74-0.37-40.3-4.2-58.02-7.77c-7.1-1.42-11.39-6.38-12.74-14.7c-1.79-11-1.15-23.57-0.42-34.49
		c0.86-12.72,9.45-17.02,17.75-19.56c11.51-3.52,21.91-5.41,30.92-5.62c18.53-0.42,38.13-0.62,61.7-0.62
		c17.23,0,34.35,0.1,53.35,0.23H1360.31z"/>
	<path class="st4" d="M464.05,1396.41c-5.57,0-10.09-4.51-10.09-10.09v-203.48c-1.97-0.01-3.93-0.02-5.86-0.02
		c-4.92-0.02-9.73-0.04-14.47-0.04c-8.09,0-14.65,0.06-20.65,0.2c-0.32,0.01-0.64,0.02-0.95,0.02c-2.37,0-9.6,0-14.84-5.29
		c-3.54-3.58-5.24-8.46-5.18-14.93c0.19-20.99,0.19-43.35,0.02-72.51c-0.04-6.28,1.63-11.02,5.09-14.51
		c5.2-5.23,12.44-5.23,14.82-5.23c5.4,0.02,10.71,0.02,16.03,0.02c0.03,0,0.06,0,0.09,0c20.97,0,42.29-0.07,62.91-0.14
		c20.64-0.07,41.99-0.14,62.99-0.14c38.85,0,70.41,0.25,99.31,0.78c44.03,0.82,75.92,16.29,94.79,45.99
		c25.25,39.74,28.6,82.14,9.43,119.39c-9.84,19.13-23.84,33.93-41.61,44.03c-16.9,9.6-36.78,14.68-59.09,15.1
		c-11.63,0.22-23.35,0.33-34.84,0.33c-12.76,0-25.62-0.14-38.22-0.4c-0.23-0.01-0.46-0.01-0.68-0.01c-0.71,0-1.27,0.02-1.69,0.06
		c-0.05,0.52-0.08,1.23-0.06,2.17c0.39,21.12,0.32,42.66,0.25,63.49c-0.03,8.34-0.06,16.71-0.06,25.13
		c0,5.58-4.52,10.09-10.09,10.09H464.05 M581.74,1202.83c10.2,0.2,21.71,0.4,32.95,0.4c12.47,0,23.49-0.23,33.7-0.72
		c1.29-0.15,4.13-1.67,5.51-2.88c1.28-9.47,0.87-19.15-1.16-27.53c-1.26-1.51-5.06-3.69-6.76-3.83c-9.79-0.48-20.23-0.69-33.84-0.69
		c-6.51,0-12.95,0.05-19.76,0.1c-3.57,0.02-7.21,0.05-10.88,0.06c0,0.89-0.01,1.78-0.01,2.66
		C581.45,1181.64,581.4,1192.3,581.74,1202.83z"/>
	<path class="st1" d="M553.97,1080.36c33.04,0,66.09,0.17,99.12,0.78c33.92,0.63,66.77,10.33,86.46,41.31
		c21.79,34.31,27.79,72.82,8.97,109.36c-18.3,35.55-51.39,52.9-91.92,53.66c-11.55,0.22-23.1,0.33-34.66,0.33
		c-12.67,0-25.34-0.14-38-0.4c-0.3-0.01-0.6-0.01-0.89-0.01c-8.8,0-12.01,2.99-11.84,12.51c0.55,29.26,0.2,58.53,0.2,88.42
		c-36.04,0-71.11,0-107.37,0c0-70.69,0-141.29,0-213.54c-10.67,0-20.69-0.09-30.42-0.09c-7.06,0-13.97,0.05-20.89,0.21
		c-0.24,0-0.48,0.01-0.71,0.01c-6.97,0-10-2.61-9.93-10.05c0.22-24.22,0.16-48.44,0.02-72.66c-0.04-6.96,2.7-9.59,9.82-9.59
		c0.02,0,0.04,0,0.05,0c5.37,0.02,10.73,0.02,16.1,0.02C470.05,1080.63,512.01,1080.36,553.97,1080.36 M614.7,1213.31
		c11.4,0,22.81-0.19,34.18-0.73c5.31-0.25,14.13-5.75,14.77-9.85c1.71-11.03,1.45-23.02-1.29-33.8
		c-1.22-4.78-10.18-10.46-15.87-10.73c-11.37-0.55-22.76-0.69-34.33-0.69c-13.26,0-26.76,0.19-40.71,0.19
		c0,17.15-0.31,32.82,0.32,48.46c0.1,2.43,4.45,6.66,6.9,6.71C590.67,1213.1,602.69,1213.31,614.7,1213.31 M553.97,1060.18
		c-21.01,0-42.36,0.07-63.01,0.14c-20.61,0.06-41.93,0.14-62.88,0.14c-5.35,0-10.7,0-16.06-0.02h-0.09
		c-9.17,0-16.56,2.76-21.97,8.21c-5.38,5.41-8.08,12.7-8.02,21.68c0.18,29.08,0.17,51.39-0.02,72.36
		c-0.08,9.17,2.64,16.62,8.1,22.12c5.44,5.5,12.85,8.28,22.01,8.28c0.39,0,0.78-0.01,1.18-0.02c5.92-0.14,12.41-0.2,20.41-0.2
		c3.38,0,6.76,0.01,10.25,0.02v193.43c0,11.14,9.03,20.18,20.18,20.18h107.37c11.14,0,20.18-9.03,20.18-20.18
		c0-8.4,0.03-16.88,0.06-25.1c0.06-18.2,0.12-36.94-0.12-55.51c10.09,0.17,20.29,0.26,30.43,0.26c11.56,0,23.35-0.11,35.04-0.33
		c49.63-0.93,88.51-23.87,109.48-64.59c20.88-40.57,17.37-86.53-9.88-129.42c-20.8-32.73-55.49-49.78-103.11-50.66
		C624.5,1060.43,592.89,1060.18,553.97,1060.18z M591.56,1177.78c0.3-0.01,0.61-0.01,0.91-0.01c6.8-0.05,13.22-0.1,19.69-0.1
		c12.61,0,22.44,0.19,31.56,0.59c0.75,4.52,1,9.39,0.73,14.32c-9.08,0.38-18.85,0.56-29.75,0.56c-7.74,0-15.61-0.09-23.09-0.22
		C591.55,1187.96,591.54,1182.92,591.56,1177.78z"/>
	<path class="st4" d="M779.98,1396.23c-5.38,0-9.81-4.22-10.08-9.6c-0.05-1.05-0.12-2.1-0.18-3.16c-0.16-2.51-0.32-5.11-0.32-7.84
		c-0.01-24.19,0-48.38,0-72.57c0.01-68.94,0.02-140.24-0.27-210.35c-0.02-5.29,0.58-11.99,5.44-16.88
		c4.83-4.84,11.51-5.47,16.79-5.47l0.32,0.01c45.48,0.22,90.24,0.24,131.84,0.24c12.11,0,60.53-0.01,72.65-0.01
		c8.15,0,16.32,0,24.47,0.01c8.69,0,14.97,0,19.74,4.83c4.72,4.77,4.72,10.72,4.73,19.74c0,6.47-0.05,13.03-0.1,19.38
		c-0.1,14.86-0.22,30.23,0.35,45.2c0.19,4.95-0.15,12.14-5.25,17.43c-5.02,5.21-12.05,5.88-17.62,5.88h-0.61
		c-16.22-0.15-33.61-0.21-54.74-0.21c-14.06,0-28.12,0.02-42.18,0.06c-11.7,0.02-23.4,0.05-35.1,0.06h-2.78v13.94h89.97
		c5.58,0,10.09,4.52,10.09,10.09v53.63c0,5.57-4.51,10.09-10.09,10.09h-89.88v14.89h171.85c5.58,0,10.09,4.52,10.09,10.09v90.46
		c0,5.57-4.51,10.09-10.09,10.09H779.98"/>
	<path class="st1" d="M791.37,1080.45c0.09,0,0.18,0,0.27,0.01c43.98,0.21,87.96,0.24,131.95,0.24c24.27,0,48.54-0.01,72.81-0.01
		c8.08,0,16.16,0,24.24,0.01c14.36,0,14.38,0.06,14.39,14.49c0.02,21.65-0.56,43.33,0.26,64.96c0.4,10.44-3.41,12.83-12.78,12.83
		c-0.17,0-0.35,0-0.52,0c-18.29-0.16-36.57-0.21-54.87-0.21c-25.74,0-51.5,0.1-77.25,0.11c-1.44,0-2.88,0-4.36,0
		c-2.62,0-5.38,0-8.51,0c0,11.97,0,22.45,0,34.11c33.46,0,66.34,0,100.06,0c0,18.18,0,35.19,0,53.63c-33.01,0-66.15,0-99.97,0
		c0,12.21,0,23.03,0,35.06c60.39,0,120.74,0,181.94,0c0,30.67,0,60.13,0,90.46c-92.84,0-185.45,0-279.04,0
		c-0.17-3.45-0.49-6.98-0.49-10.51c-0.03-94.32,0.12-188.65-0.27-282.96C779.18,1082.86,782.08,1080.45,791.37,1080.45
		 M791.34,1060.28c-4.27,0-15.53,0.02-23.91,8.44c-7.57,7.6-8.41,17.36-8.38,24.04c0.29,70.08,0.28,141.35,0.27,210.28
		c0,24.2-0.01,48.4,0,72.61c0,3.03,0.18,5.92,0.34,8.47c0.06,1.02,0.13,2.02,0.18,3.02c0.53,10.75,9.39,19.19,20.15,19.19h279.04
		c11.14,0,20.18-9.04,20.18-20.18v-90.46c0-11.14-9.03-20.18-20.18-20.18h-68.36c4.03-3.69,6.57-8.99,6.57-14.89v-53.63
		c0-5.45-2.15-10.39-5.67-14.02c10.83,0.03,20.73,0.09,30.23,0.18c0.24,0,0.48,0,0.7,0c4.45,0,16.24,0,24.88-8.97
		c8.67-9.01,8.22-20.9,8.06-24.82c-0.56-14.74-0.44-29.98-0.34-44.73c0.05-6.36,0.1-12.94,0.1-19.46
		c-0.01-9.84-0.02-19.13-7.64-26.83c-4.14-4.18-9.63-6.69-16.32-7.46c-3.19-0.36-6.62-0.36-10.6-0.36
		c-8.08-0.01-16.16-0.01-24.25-0.01c-12.14,0-24.27,0-36.4,0.01c-12.14,0-24.27,0-36.4,0c-41.59,0-86.36-0.02-131.85-0.24
		l-0.36-0.01C791.36,1060.28,791.35,1060.28,791.34,1060.28z"/>
	<path class="st4" d="M924.93,1062.03c-2.2,0-4.38-0.74-6.15-2.2c-2.98-2.45-4.22-6.43-3.16-10.14c0.67-2.36,1.18-4.41,1.61-6.22
		c0.93-3.77,1.72-7.03,3.42-10.27c8.11-15.53,16.25-30.46,24.2-44.41c2.75-4.83,8.73-10.06,15.35-10.13
		c6.78-0.06,13.78-0.09,21.4-0.09c16.5,0,33.26,0.15,49.47,0.29l6.21,0.06c3.57,0.03,5.95,1.73,7.68,2.96
		c0.71,0.51,1.6,1.14,2.9,1.97c2.92,1.86,4.62,5.16,4.46,8.62c-0.17,3.47-2.17,6.59-5.26,8.17l-117.73,60.33
		C927.95,1061.68,926.44,1062.03,924.93,1062.03"/>
	<path class="st1" d="M981.62,988.25c18.53,0,37.06,0.19,55.59,0.35c0.86,0.01,1.71,1.02,5.45,3.41
		c-39.29,20.13-76.85,39.39-117.73,60.33c2.03-7.14,2.52-11.24,4.3-14.66c7.76-14.84,15.74-29.55,24.03-44.09
		c1.36-2.39,4.62-5.22,7.03-5.25C967.41,988.28,974.51,988.25,981.62,988.25 M981.62,968.89c-7.66,0-14.69,0.03-21.5,0.09
		c-10.5,0.1-19.46,7.62-23.68,15.02c-8.01,14.04-16.2,29.08-24.37,44.72c-2.24,4.29-3.26,8.44-4.24,12.46
		c-0.44,1.81-0.9,3.68-1.53,5.87c-2.11,7.42,0.37,15.38,6.34,20.28c3.53,2.91,7.89,4.4,12.29,4.4c3.01,0,6.04-0.7,8.83-2.13
		l117.73-60.33c6.17-3.17,10.18-9.39,10.51-16.33c0.33-6.93-3.07-13.51-8.93-17.24c-1.09-0.69-1.82-1.23-2.48-1.69
		c-2.31-1.64-6.61-4.7-13.23-4.76l-6.13-0.06C1014.99,969.03,998.18,968.89,981.62,968.89z"/>
	<path class="st4" d="M340.78,1466.02l-90.43,60.46l-19.11-28.58l18.14-32.9c5.72-10.9,14.28-24.3,22.21-35.38l-0.25-0.37
		c-11.01,9.3-23.34,18.23-36.86,27.27l-21.37,14.28l-14.8-22.14l90.43-60.46l17.09,25.56l-19.81,35.42
		c-6.23,11.45-14.45,25.44-22.49,37.07l0.31,0.47c11.81-8.76,25.22-18.17,39.91-27.99l22.21-14.85L340.78,1466.02"/>
	<path class="st4" d="M245.26,1359.2l25.33-5.66l13.34,27.03l-111.52,19.83l-17.17-34.81l83.21-77.23l13.92,28.23l-19.55,17.38
		L245.26,1359.2 M215.3,1347.08l-15.32,13.18c-4.77,4.2-11.82,9.97-16.82,14.33l0.14,0.29c6.47-1.4,15.22-3.91,21.45-5.23
		l19.51-4.41L215.3,1347.08z"/>
	<path class="st4" d="M207.1,1285.9c0.91-7.34,0.57-18.57-3.06-28.83c-3.33-9.4-8.24-12.88-13.41-11.05
		c-4.91,1.74-6.17,7.37-6.01,20.37c-0.01,19.43-5.47,34.34-20.72,39.74c-18.14,6.42-37.48-3.94-46.65-29.83
		c-4.34-12.25-5.15-21.81-4.57-29.59l23.98-2.03c-0.38,5.1-0.61,13.74,3.03,24.01c2.96,8.37,7.67,11.88,12.16,10.29
		c5.21-1.84,5.38-8.02,5.63-22.67c0.22-20.88,7.19-32.64,21.45-37.69c17.72-6.28,37.66,2.15,48.26,32.09
		c4.38,12.36,5.39,25.49,4.44,32.38L207.1,1285.9"/>
	<polyline class="st4" points="93.68,1190.82 132.94,1182.06 125.25,1147.56 85.99,1156.32 79.64,1127.89 185.82,1104.21 
		192.16,1132.64 150.06,1142.04 157.75,1176.54 199.85,1167.14 206.2,1195.58 100.02,1219.26 93.68,1190.82 	"/>
	<g>
		<defs>
			<rect id="SVGID_1_" x="66.6" y="37.14" width="1866.79" height="1925.73"/>
		</defs>
		<clipPath id="SVGID_2_">
			<use xlink:href="#SVGID_1_"  style="overflow:visible;"/>
		</clipPath>
		<polyline class="st5" points="133.4,1023.74 137.3,1062.64 157.25,1060.65 152.89,1017.17 176.58,1014.79 183.85,1087.26 
			75.6,1098.11 68.57,1027.89 92.25,1025.51 96.39,1066.74 113.85,1064.99 109.95,1026.09 133.4,1023.74 		"/>
		<path class="st5" d="M68.37,999.88c-1.1-6.6-2-20.97-1.78-34.41c0.25-15.37,1.49-24.67,5.86-33.08
			c4.09-8.41,12.02-14.45,22.63-14.28c9.16,0.15,17.99,5.29,22.55,18l0.4,0.01c3.81-13.26,13.82-21.09,26.73-20.88
			c10.25,0.16,18.19,5.25,23.52,12.57c6,8.29,9.41,21.86,9.03,45.18c-0.21,13.15-1.22,22.78-2.24,28.62L68.37,999.88 M109.22,971.68
			l0.09-5.85c0.2-12.3-4.06-18.34-11.08-18.46c-6.37-0.1-10.49,4.67-10.65,14.44c-0.08,4.88,0.16,7.63,0.49,9.53L109.22,971.68z
			 M155.66,972.43c0.36-2.13,0.4-4.63,0.46-8.38c0.16-9.68-3.58-18.01-13.14-18.17c-9.2-0.15-12.88,8.22-13.06,19.16l-0.11,6.98
			L155.66,972.43z"/>
	</g>
	<path class="st4" d="M136.71,793.98c34.65,4.85,53.79,28.76,49.14,62c-4.68,33.41-32.3,48.24-62.23,44.05
		c-31.37-4.39-53.39-28.41-48.77-61.42C79.7,803.97,107.86,789.95,136.71,793.98 M127.37,869.44c20.26,2.83,33.88-4.26,35.81-18.04
		c1.96-14.03-10.41-24.03-29.83-26.75c-18.54-2.6-33.77,3.75-35.73,17.73C95.72,856,107.55,866.66,127.37,869.44z"/>
	<path class="st4" d="M201.85,759.91L98.38,726.34l10.61-32.7l37.07-6.13c12.1-2.27,27.93-3.83,41.54-4.47l0.14-0.42
		c-14.12-2.89-28.77-7.04-44.23-12.06l-24.45-7.93l8.22-25.33l103.47,33.57l-9.49,29.24l-40.08,6.38c-12.84,2.2-28.92,4.4-43.04,5.3
		l-0.17,0.54c14.19,3.84,29.89,8.55,46.7,14.01l25.41,8.24L201.85,759.91"/>
	<path class="st4" d="M231.41,539.18c31.49,15.24,42.38,43.86,27.76,74.08c-14.69,30.36-45.53,36.01-72.74,22.85
		c-28.51-13.8-42.1-43.41-27.59-73.41C174.09,531.2,205.19,526.49,231.41,539.18 M199.39,608.13c18.41,8.91,33.56,6.33,39.62-6.2
		c6.17-12.75-2.54-26.06-20.19-34.6c-16.85-8.15-33.29-6.79-39.44,5.93C173.38,585.64,181.38,599.41,199.39,608.13z"/>
	<path class="st4" d="M298.68,537.22l-36.94-23.8l-73.09-6.28l18.09-28.09l25.59,5.5c8.03,1.62,13.71,2.93,20.9,4.73l0.18-0.27
		c-4.38-5.41-8.31-10.49-13.12-16.81l-15.76-20.76l17.79-27.61l34.28,64.51l37.86,24.39L298.68,537.22"/>
	<path class="st4" d="M328.06,450.6l15.81,20.58l-18.89,23.49l-65.01-92.76l24.32-30.25l105.11,42.88l-19.72,24.53l-24-10.39
		L328.06,450.6 M326.42,418.32l-18.41-8.33c-5.82-2.55-14.02-6.51-20.09-9.21l-0.2,0.25c3.99,5.28,9.96,12.15,13.78,17.24
		l12.22,15.83L326.42,418.32z"/>
	<path class="st4" d="M346.83,305.07c4.08-5.3,14-15.75,23.98-24.74c11.42-10.29,19.08-15.71,28.21-18.24
		c8.94-2.73,18.77-1.05,25.87,6.84c6.13,6.81,8.38,16.78,2.18,28.77l0.27,0.3c12.3-6.24,24.85-4.24,33.49,5.35
		c6.86,7.62,8.54,16.9,6.82,25.79c-1.98,10.04-9.6,21.78-26.93,37.39c-9.78,8.8-17.51,14.63-22.48,17.85L346.83,305.07
		 M395.3,315.78l4.35-3.91c9.14-8.24,10.67-15.47,5.97-20.69c-4.27-4.74-10.56-4.5-17.82,2.04c-3.63,3.27-5.48,5.31-6.64,6.85
		L395.3,315.78z M426.37,350.29c1.8-1.19,3.66-2.87,6.45-5.38c7.2-6.48,10.75-14.89,4.35-22c-6.16-6.84-14.8-3.83-22.93,3.49
		l-5.19,4.67L426.37,350.29z"/>
	<path class="st4" d="M430.78,231.91c5.98-5.8,15.45-13.79,27.35-22.19c13.61-9.62,24.69-14.63,34.94-14.32
		c8.77,0.32,16.31,4.48,22.46,13.18c7.82,11.07,5.09,24.82-0.04,32.24l0.33,0.46c7.69-1.63,14.89,1.78,22.61,7.88
		c9.05,7.14,21.11,17.99,25.25,20.2l-24.32,17.18c-3.17-1.62-10.39-6.94-20.69-16.06c-9.93-8.94-14.75-8.85-22.1-3.65l-3.86,2.72
		l23.54,33.31l-23.56,16.65L430.78,231.91 M480.65,252.5l6.19-4.38c8.96-6.33,11.04-14.37,6.34-21.03
		c-4.7-6.66-11.76-7.35-19.72-1.83c-4.48,3.17-6.69,5.07-7.67,6.21L480.65,252.5z"/>
	<path class="st4" d="M586.53,227.98l6.47,25.13l-26.59,14.2l-23.42-110.82l34.24-18.29l79.86,80.67l-27.76,14.83l-18-18.97
		L586.53,227.98 M597.68,197.64l-13.67-14.89c-4.35-4.63-10.35-11.49-14.86-16.35l-0.28,0.15c1.6,6.42,4.39,15.08,5.92,21.27
		l5.03,19.36L597.68,197.64z"/>
	<polyline class="st4" points="656.5,202.56 676.69,121.23 676.47,120.66 635.82,136.36 627.14,113.89 703.03,84.58 709.03,100.13 
		689.78,179.85 689.99,180.41 734.3,163.3 742.98,185.77 662.09,217.01 656.5,202.56 	"/>
	<polyline class="st4" points="752.91,70.25 783.32,174.7 755.34,182.85 724.93,78.4 752.91,70.25 	"/>
	<polyline class="st4" points="778.58,63.14 807.11,57.25 824.18,139.88 865.2,131.4 870.14,155.31 800.59,169.68 778.58,63.14 	"/>
	<polyline class="st4" points="897.61,42.71 911.12,150.65 882.21,154.27 868.7,46.33 897.61,42.71 	"/>
	<path class="st4" d="M956.25,121.78l-5.32,25.4l-30.13,0.97l28.04-109.74l38.79-1.25l35.93,107.68l-31.46,1.01l-7.75-24.98
		L956.25,121.78 M979.68,99.51l-5.67-19.4c-1.85-6.08-4.2-14.88-6.09-21.24l-0.32,0.01c-1.4,6.46-2.74,15.47-4.11,21.69l-4.05,19.59
		L979.68,99.51z"/>
	<path class="st4" d="M1034.14,145.41l10.53-108.28l34.22,3.33l13.96,34.89c4.81,11.33,9.75,26.45,13.29,39.61l0.44,0.04
		c-0.22-14.41,0.69-29.61,2.27-45.79l2.49-25.58l26.51,2.58l-10.53,108.28l-30.61-2.98l-14.85-37.77
		c-4.91-12.07-10.52-27.29-14.43-40.89l-0.56-0.05c-0.7,14.69-1.92,31.03-3.63,48.62l-2.59,26.59L1034.14,145.41"/>
	<path class="st4" d="M1220.94,63.6l28.29,7l-16.12,65.14c-7.62,30.79-25.13,38.55-50.47,32.28c-5.76-1.43-13.24-4.11-18.09-7.18
		l8.59-21.98c3.2,1.83,7.44,3.71,12.02,4.84c9.09,2.25,16.04-0.31,19.65-14.88L1220.94,63.6"/>
	<polyline class="st4" points="1300.96,86.79 1267.5,190.31 1239.77,181.34 1273.24,77.83 1300.96,86.79 	"/>
	<path class="st4" d="M1354.19,106.73l-24.52,56.66c-6.52,15.07-4.98,25.85,5.61,30.43c10.63,4.6,19.16-0.9,26.02-16.75l24.52-56.66
		l26.74,11.57l-23.82,55.07c-13.35,30.85-35.41,39.77-63.48,27.62c-27.29-11.81-35.21-33.04-21.35-65.07l23.56-54.44L1354.19,106.73
		"/>
	<polyline class="st4" points="1448.35,203.73 1439.18,220.28 1401.35,199.32 1410.51,182.77 1448.35,203.73 	"/>
	<path class="st4" d="M1505.57,186.08l24.4,15.91l-36.65,56.21c-17.33,26.57-36.41,28.14-58.28,13.88
		c-4.96-3.24-11.15-8.24-14.72-12.73l15.35-17.93c2.42,2.78,5.8,5.95,9.76,8.53c7.84,5.11,15.24,4.98,23.44-7.59L1505.57,186.08"/>
	<polyline class="st4" points="1573.49,234.25 1507.89,321.03 1484.65,303.46 1550.25,216.68 1573.49,234.25 	"/>
	<polyline class="st4" points="1594.22,282.94 1573.56,264.46 1589.87,246.24 1653.29,302.98 1636.98,321.2 1615.94,302.37 
		1559.7,365.22 1537.99,345.79 1594.22,282.94 	"/>
	<path class="st4" d="M1609.73,372.74c1.99,7.13,6.63,17.35,13.94,25.43c6.69,7.38,12.57,8.7,16.63,5.02
		c3.86-3.5,2.86-9.17-2.3-21.11c-7.49-17.94-8.19-33.8,3.8-44.66c14.26-12.92,36.1-10.82,54.55,9.54
		c8.72,9.63,13.16,18.13,15.62,25.54l-21.34,11.12c-1.62-4.85-4.74-12.92-12.06-20.99c-5.96-6.58-11.65-8-15.19-4.8
		c-4.09,3.71-1.86,9.48,3.55,23.09c7.84,19.35,5.95,32.89-5.26,43.05c-13.94,12.63-35.58,12.53-56.91-11
		c-8.8-9.72-14.79-21.44-16.58-28.15L1609.73,372.74"/>
	<path class="st4" d="M1750.87,416.41l-50.34,35.74c-13.4,9.51-17.67,19.52-10.99,28.93c6.71,9.44,16.86,9.17,30.94-0.83
		l50.34-35.74l16.87,23.76L1738.75,503c-27.41,19.46-50.9,15.65-68.6-9.29c-17.22-24.25-12.98-46.51,15.48-66.71l48.37-34.34
		L1750.87,416.41"/>
	<path class="st4" d="M1758.12,586.96l-25.38,5.44l-13.1-27.15l111.69-18.86l16.87,34.96l-83.88,76.49l-13.67-28.35l19.69-17.21
		L1758.12,586.96 M1787.97,599.35l15.44-13.05c4.8-4.16,11.9-9.87,16.95-14.18l-0.14-0.29c-6.48,1.33-15.25,3.77-21.5,5.04
		l-19.55,4.24L1787.97,599.35z"/>
	<path class="st4" d="M1833.25,743.25c11.68-4.02,25.46-8.62,41.73-13.66l-0.13-0.42c-14.83,1.12-31.68,1.56-44.13,1.77l-39.42,1.02
		l-6.79-21.76l33.37-19.97c10.35-6.14,24.71-14.14,38.24-21.02l-0.1-0.31c-14.82,3.99-30.46,8.28-42.4,11.5l-37.66,10.02
		l-7.99-25.61l105.84-26.02l11.69,37.44l-25.82,15.58c-10.67,6.46-23.46,13.83-35.53,19.97l0.17,0.54
		c13.57-1.07,29.33-2.18,41.21-2.55l30.17-0.87l11.42,36.59l-102.22,37.61l-8.43-27L1833.25,743.25"/>
	<path class="st4" d="M1835.39,794.74c-2.16,7.07-3.78,18.19-1.97,28.93c1.65,9.83,5.88,14.11,11.3,13.2
		c5.13-0.86,7.35-6.18,9.45-19.02c3.37-19.14,11.34-32.88,27.29-35.56c18.98-3.19,36.23,10.36,40.78,37.46
		c2.15,12.81,1.31,22.37-0.61,29.93l-23.97-2.15c1.25-4.96,2.98-13.43,1.17-24.18c-1.47-8.75-5.5-13.03-10.19-12.24
		c-5.46,0.92-6.69,6.97-9.47,21.35c-3.83,20.53-12.73,30.9-27.66,33.41c-18.54,3.11-36.72-8.64-41.98-39.96
		c-2.17-12.93-0.9-26.03,1.23-32.65L1835.39,794.74"/>
	<polyline class="st4" points="1905.58,900.32 1903.93,872.64 1928.34,871.2 1933.4,956.14 1908.98,957.6 1907.31,929.4 
		1823.13,934.4 1821.4,905.33 1905.58,900.32 	"/>
	<polyline class="st4" points="1865.17,1043.5 1866.95,1004.44 1846.92,1003.54 1844.93,1047.19 1821.15,1046.11 1824.45,973.35 
		1933.13,978.29 1929.93,1048.79 1906.14,1047.71 1908.02,1006.31 1890.49,1005.52 1888.71,1044.57 1865.17,1043.5 	"/>
	<path class="st4" d="M1925.88,1076.06c0,8.33-0.88,20.69-3.15,35.08c-2.58,16.46-6.71,27.91-14.08,35.04
		c-6.34,6.07-14.58,8.57-25.11,6.92c-13.39-2.11-21.34-13.65-23.09-22.5l-0.56-0.09c-4.19,6.65-11.65,9.44-21.41,10.72
		c-11.43,1.52-27.62,2.61-32.09,4.03l4.62-29.42c3.37-1.15,12.22-2.61,25.94-3.65c13.33-0.89,16.62-4.41,18.02-13.3l0.73-4.66
		l-40.3-6.33l4.49-28.5L1925.88,1076.06 M1876.36,1097.48l-1.18,7.5c-1.71,10.84,2.61,17.93,10.66,19.2
		c8.05,1.27,13.47-3.32,15.05-12.87c0.86-5.42,1.02-8.34,0.9-9.83L1876.36,1097.48z"/>
	<path class="st4" d="M1907.42,1184.32c-1.14,9.29-3.8,21.5-7.39,33.86c-5.81,20.03-12.71,31.64-22.85,39.96
		c-11.28,9.2-26.45,12.82-45.64,7.26c-21.27-6.17-32.76-18.25-37.75-30.75c-5.58-14.05-4.57-32.33,1.36-52.75
		c3.89-13.4,7.42-22.22,9.78-27.33L1907.42,1184.32 M1817.16,1188.42c-0.73,1.38-1.48,3.94-2.03,5.83
		c-5.5,18.07,0.57,34.37,24.13,41.21c20.43,5.92,33.56-3.45,38.44-20.23c1.27-4.38,1.7-7.19,1.78-8.73L1817.16,1188.42z"/>
	<path class="st4" d="M1784.76,1294.62l-20.66-15.71l12.06-27.62l87.07,72.44l-15.53,35.57l-112.67-13.8l12.6-28.84l25.89,3.73
		L1784.76,1294.62 M1794.82,1325.34l19.95,3.21c6.29,0.94,15.24,2.6,21.81,3.62l0.13-0.3c-5.24-4.04-12.8-9.11-17.83-13.02
		l-15.95-12.07L1794.82,1325.34z"/>
	<path class="st4" d="M1715.17,1453.46c10.67,6.23,23.14,13.69,37.57,22.73l0.23-0.37c-10.52-10.52-21.84-23.01-30.11-32.31
		l-26.47-29.22l12.07-19.34l36.9,12.29c11.39,3.83,26.82,9.52,40.87,15.29l0.17-0.27c-12.69-8.63-26.15-17.7-36.36-24.65
		l-32.15-22.02l14.21-22.76l88.73,63.29l-20.77,33.26l-28.66-9.42c-11.85-3.88-25.78-8.77-38.3-13.93l-0.3,0.48
		c9.65,9.6,20.77,20.82,28.8,29.6l20.33,22.3l-20.3,32.51l-95.15-53l14.98-23.99L1715.17,1453.46"/>
	<polyline class="st4" points="602.53,1729.13 580.33,1774.26 619.98,1793.76 642.18,1748.64 674.85,1764.7 614.84,1886.72 
		582.16,1870.66 605.96,1822.28 566.31,1802.77 542.51,1851.15 509.84,1835.08 569.85,1713.06 602.53,1729.13 	"/>
	<path class="st4" d="M731.49,1783.77l-22.3,73.88c-5.93,19.65-2.47,32.81,11.34,36.98c13.86,4.18,23.66-3.87,29.9-24.53l22.3-73.88
		l34.86,10.52l-21.67,71.8c-12.14,40.22-38.25,54.47-74.85,43.42c-35.59-10.74-48.47-35.97-35.86-77.73l21.42-70.98L731.49,1783.77"
		/>
	<g>
		<defs>
			<rect id="SVGID_3_" x="66.6" y="37.14" width="1866.79" height="1925.73"/>
		</defs>
		<clipPath id="SVGID_4_">
			<use xlink:href="#SVGID_3_"  style="overflow:visible;"/>
		</clipPath>
		<path class="st6" d="M812.92,1946.52l17.53-134.84l42.61,5.54l16.03,44.15c5.56,14.35,11.12,33.43,15.02,50.01l0.55,0.07
			c0.31-18.01,2.06-36.96,4.68-57.12l4.14-31.86l33.01,4.29l-17.53,134.84l-38.11-4.95l-17.03-47.78
			c-5.64-15.28-12.04-34.52-16.37-51.67l-0.7-0.09c-1.47,18.32-3.66,38.69-6.5,60.6l-4.3,33.11L812.92,1946.52"/>
		<path class="st6" d="M1092.05,1953.62c-10.13,3.75-28.95,8.64-46.69,9.22c-26.67,0.85-45.18-5.22-57.76-16.53
			c-13.19-11.64-20.41-28.97-20.93-48.44c-1.31-47.24,33.06-72.36,77.13-73.77c18.35-0.58,32.42,2.24,39.63,5.4l-6.38,29.32
			c-7.77-2.98-17.02-5.21-32.5-4.71c-22.43,0.72-40.62,13.06-39.73,40.68c0.81,25.31,17.71,39.5,39.99,38.79
			c4.99-0.16,9.66-0.77,11.4-1.53l-0.74-23.4l-18.2,0.58l-0.9-28.28l53.29-1.7L1092.05,1953.62"/>
	</g>
	<path class="st4" d="M1163.79,1917.16l-1.54,32.4l-36.99,7.16l12.92-141l47.64-9.21l65.63,125.81l-38.63,7.46l-14.5-29.3
		L1163.79,1917.16 M1188.31,1885.04l-10.84-22.82c-3.49-7.13-8.12-17.54-11.72-25.01l-0.4,0.07c-0.46,8.26-0.31,19.63-0.78,27.58
		l-1.13,24.98L1188.31,1885.04z"/>
	<path class="st4" d="M1241.33,1795.39c9.15-4.97,23.25-11.39,40.41-17.5c19.62-6.99,34.65-9.29,46.89-5.46
		c10.45,3.34,18.12,10.89,22.59,23.44c5.69,15.96-2.24,31.59-10.91,38.79l0.23,0.67c9.81,0.63,17.33,7.16,24.57,17.11
		c8.49,11.65,19.35,28.77,23.58,32.83l-35.06,12.49c-3.27-3.02-10.17-11.85-19.49-26.31c-8.93-14.11-14.78-15.62-25.37-11.85
		l-5.56,1.99l17.12,48.03l-33.97,12.1L1241.33,1795.39 M1294.44,1836.99l8.93-3.19c12.92-4.6,18.13-13.57,14.71-23.18
		c-3.42-9.6-11.69-12.81-23.12-8.84c-6.46,2.3-9.76,3.85-11.32,4.88L1294.44,1836.99z"/>
	<path class="st4" d="M1443.24,1858.35l-25.49-48.65l-75.6-51.89l36.99-19.38l24.44,21.76c7.73,6.71,13.11,11.64,19.81,18.03
		l0.36-0.19c-1.43-8.59-2.57-16.54-3.91-26.36l-4.34-32.3l36.37-19.05l-2.51,91.28l26.13,49.86L1443.24,1858.35"/>
</g>
</svg>
