<svg id="Layer_1" data-name="Layer 1" xmlns="http://www.w3.org/2000/svg" xmlns:xlink="http://www.w3.org/1999/xlink" viewBox="0 0 1866.84 1925.79"><defs><style>.cls-1,.cls-5{fill:none;}.cls-2{fill:#c71617;}.cls-3{fill:#fff;}.cls-4{fill:#12100b;}.cls-5{stroke:#1d1d1b;stroke-width:3px;}.cls-6{fill:#1d1d1b;}.cls-7{fill:#f4f9f9;}.cls-8{clip-path:url(#clip-path);}</style><clipPath id="clip-path" transform="translate(-66.56 -37.13)"><rect class="cls-1" x="66.6" y="37.14" width="1866.79" height="1925.73"/></clipPath></defs><path class="cls-2" d="M1756.94,969.69a764.42,764.42,0,0,0-23.56-188.85l-280.55-28.73,261.66-34a761.88,761.88,0,0,0-133.33-235.65l-275,97.56,235.34-141.73a768.15,768.15,0,0,0-98-85.2L1256.78,514.75,1404.3,326.33a759.94,759.94,0,0,0-155.5-76L1126.9,484.75l74.45-249.55A761.56,761.56,0,0,0,1037,207.86l-35,245.44-35-245.42a761.37,761.37,0,0,0-164.38,27.34L877,484.77,755.06,250.3a759.94,759.94,0,0,0-155.5,76L747.08,514.76,560.36,353.15a766.68,766.68,0,0,0-98,85.2L697.71,580.08l-275-97.56A761.88,761.88,0,0,0,289.37,718.17l261.66,34L270.49,780.85A764.37,764.37,0,0,0,246.92,969.7q0,30.82,2.42,61l213.11-53L256.85,1093a758.09,758.09,0,0,0,94.49,262.15l375.42-345L394.56,1420.9a767.06,767.06,0,0,0,188.57,181.35L919.87,959.48,662.72,1649.29a758.6,758.6,0,0,0,302.44,82.11l36.78-764.69,36.78,764.69a758.6,758.6,0,0,0,302.43-82.11L1084,959.48l336.75,642.77A767,767,0,0,0,1609.3,1420.9l-332.19-410.72,375.42,345A757.83,757.83,0,0,0,1747,1093L1541.43,977.7l213.11,53q2.36-30.22,2.4-61" transform="translate(-66.56 -37.13)"/><path class="cls-3" d="M870.41,706.42v-1.15c38.66-13.57,54-39,54-65.09,0-30.24-18.9-52.55-44.84-63.82-25.94-12.08-54.47-15.18-101.52-15.18-41.13,0-85.1,3.22-105.23,6.67H652.68v56.49H672.8V872c17.91,2.65,47.43,5.06,87.69,5.06,71.39,0,112.76-10.35,137.83-27.83,22.11-15.53,37.3-38.41,37.3-67.62,0-36.8-24.45-65-65.21-75.21M761.1,622.71c5.8-1,14.2-1.84,29.15-1.84,29.89,0,44.71,11.5,44.71,29.67,0,20-18.28,32.43-56,32.43H761.1Zm25.69,193.54c-11.49,0-19.14,0-25.69-.92V741.62h21.37c33.47,0,59.28,10.12,59.28,36.34C841.75,805.21,816.44,816.25,786.79,816.25Z" transform="translate(-66.56 -37.13)"/><path class="cls-3" d="M1329.48,563.6h-89.17V755.07c0,42.78-18.77,54.63-47.43,54.63a157.51,157.51,0,0,1-39.28-5.18l-9.39,66.7c16.67,5.17,40.88,7.47,59,7.47,79.91,0,126.22-33.47,126.22-123.86V620.09h20.18V563.6h-20.17" transform="translate(-66.56 -37.13)"/><path class="cls-3" d="M1147.58,620.09V563.6H1038.26V755.07c0,42.78-18.78,54.63-47.43,54.63a157.51,157.51,0,0,1-39.28-5.18l-9.39,66.7c16.67,5.17,40.88,7.47,59,7.47,79.91,0,126.22-33.47,126.22-123.86V620.09h20.17" transform="translate(-66.56 -37.13)"/><polyline class="cls-4" points="629.29 555.36 650.84 576.91 671.42 556.33 682.38 567.29 661.8 587.87 683.56 609.63 672.08 621.1 650.33 599.35 629.75 619.93 618.78 608.96 639.36 588.38 617.81 566.83 629.29 555.36"/><polygon class="cls-5" points="629.29 555.36 650.84 576.91 671.42 556.33 682.38 567.29 661.8 587.87 683.56 609.63 672.08 621.1 650.33 599.35 629.75 619.93 618.78 608.96 639.36 588.38 617.81 566.83 629.29 555.36"/><polyline class="cls-4" points="629.29 646.01 650.84 667.56 671.42 646.98 682.38 657.95 661.8 678.53 683.56 700.28 672.08 711.76 650.33 690.01 629.75 710.59 618.78 699.62 639.36 679.04 617.81 657.49 629.29 646.01"/><polygon class="cls-5" points="629.29 646.01 650.84 667.56 671.42 646.98 682.38 657.95 661.8 678.53 683.56 700.28 672.08 711.76 650.33 690.01 629.75 710.59 618.78 699.62 639.36 679.04 617.81 657.49 629.29 646.01"/><polyline class="cls-4" points="629.29 735.87 650.84 757.42 671.42 736.84 682.38 747.8 661.8 768.38 683.56 790.14 672.08 801.61 650.33 779.86 629.75 800.44 618.78 789.47 639.36 768.89 617.81 747.34 629.29 735.87"/><polygon class="cls-5" points="629.29 735.87 650.84 757.42 671.42 736.84 682.38 747.8 661.8 768.38 683.56 790.14 672.08 801.61 650.33 779.86 629.75 800.44 618.78 789.47 639.36 768.89 617.81 747.34 629.29 735.87"/><path class="cls-6" d="M1466.7,1397.78c-15.31,0-30.86-.18-45.9-.35s-30.47-.36-45.67-.36a11.71,11.71,0,0,1-1.19-.06c-14.07,0-28.36,0-42.19.1-14.24.05-29,.1-43.45.1-21.8,0-39.76-.11-56.51-.35-48.06-.7-88.79-14.66-121.09-41.5-31.43-26.11-49.11-61.49-52.53-105.1-3.07-39.13,2.31-69.68,16.92-96.11,22.3-40.33,58.75-66,108.35-76.38,24.08-5,49-6.29,68.11-6.83,11.73-.33,24.53-.48,40.26-.48,8.56,0,17.26,0,25.67.08s17.06.09,25.57.09c6.48,0,12.27,0,17.72-.07h.39c6.8,0,11.88,1.79,15.55,5.48,5.43,5.46,5.41,13,5.39,15.54,0,8.74-.07,18.08-.07,27.74a82.7,82.7,0,0,1,6.22-13.49c11.19-19.26,29-30.71,51.55-33.1l2-.22a244.71,244.71,0,0,1,25.15-1.81c9.66,0,20,0,32.57,0l25.24,0H1550c15.24,0,35.34,0,55.69-.19h.53c5.43,0,12.31.65,17.31,5.78s5.47,12,5.36,16.74c-.56,24.28-.29,47.94,0,67.88.07,4.69-.4,11.52-5.44,16.64-5.54,5.64-13.42,5.64-16,5.64h-1.14c-8.32-.21-17.29-.31-28.22-.31-7,0-14.12,0-21,.07l-17.68.08h-.25l-2.69,0-2.51,0a47.37,47.37,0,0,0-6.34.33,15,15,0,0,0-1.73.35c.24.31.53.67.9,1.07,4.79,5.2,9.88,10.06,15.26,15.22s10.73,10.27,15.87,15.83c17.46,18.9,38.37,45.09,45.17,80.13,5.51,28.48.9,53.14-13.36,71.31-14,17.83-36.25,28-64.41,29.37-17.4.83-36.06,1.22-58.68,1.22m-160.15-214.92c-23.65,0-43.33.2-62,.63-9.93.23-21.25,2.26-33.64,6-15.75,4.82-23.89,14.15-24.86,28.53-.77,11.48-1.44,24.73.52,36.79,1.19,7.26,5.45,19.91,20.72,23,18.15,3.65,39.24,7.58,59.82,8,22.29.42,46.27.62,75.45.62,18.84,0,38-.08,56.56-.16l40.69-.15a35.78,35.78,0,0,0,10.89-1.48l.17-.06c1-.34,2.69-.88,4.16-1.44a12.72,12.72,0,0,0-1.58-2.24c-5.81-6.37-12-12.69-18-18.8-8.45-8.58-17.19-17.45-25.23-26.88-16.74-19.61-27.14-39.33-31.53-59.86a17.21,17.21,0,0,1-1.75,2.08c-5,5.06-11.88,5.64-16.62,5.64H1360C1341,1183,1323.84,1182.86,1306.55,1182.86Z" transform="translate(-66.56 -37.13)"/><path class="cls-3" d="M1291.8,1080.51c17.08,0,34.17.17,51.25.17q8.91,0,17.82-.07h.3c8,0,10.88,3.22,10.85,10.89-.1,23.5-.15,47,.15,70.5.11,8.72-3.78,11-11.86,11H1360c-17.83-.12-35.65-.23-53.49-.23-20.72,0-41.45.15-62.16.63-12.19.28-24.65,2.91-36.36,6.5-18.11,5.54-30.63,17.54-32,37.49-.88,13-1.44,26.35.63,39.09,2.57,15.8,12.55,28,28.68,31.24,20.29,4.08,41,7.78,61.61,8.17,25.21.48,50.42.62,75.64.62,32.43,0,64.86-.24,97.28-.31a45.87,45.87,0,0,0,14-2c4.52-1.48,11.06-3.59,12.14-6.91,1.15-3.56-2-9.81-5.08-13.21-14.07-15.41-29.55-29.58-43.07-45.43-17.32-20.3-29.92-43.61-31.38-70.81-1.61-29.73,11.43-70.6,54.38-75.16,8.69-.92,17.43-1.93,26.16-2q16.24-.06,32.5,0l50.49,0c18.59,0,37.19,0,55.79-.19h.45c9,0,12.82,2.36,12.58,12.19-.52,22.76-.34,45.53.05,68.29.15,8.68-2.82,12-11.36,12h-.88c-9.49-.24-19-.31-28.47-.31-12.9,0-25.81.13-38.71.15h-.22c-1.74,0-3.48,0-5.21,0a54.08,54.08,0,0,0-7.76.44c-11.79,1.69-14.94,9.4-6.83,18.22,9.92,10.78,21.2,20.3,31.15,31.06,20,21.69,36.91,45.48,42.67,75.2,9.77,50.45-15.56,86.09-68.37,88.69-19.38,1-38.78,1.24-58.21,1.24-30.5,0-61.06-.72-91.56-.72v-.06c-28.94,0-57.88.19-86.81.19-18.8,0-37.59-.08-56.39-.36-42.29-.61-81.65-11.64-114.79-39.17-30.54-25.38-45.83-58.79-48.91-98.14-2.48-31.51.08-62.2,15.69-90.45,22.22-40.18,57.94-62.28,101.58-71.38,21.65-4.52,44.16-6,66.34-6.62,13.31-.34,26.62-.45,40-.45m0-20.17c-15.83,0-28.71.15-40.54.49-19.48.55-45,1.85-69.89,7-52.61,11-91.34,38.35-115.12,81.37-15.61,28.25-21.38,60.59-18.15,101.79,3.64,46.44,22.53,84.15,56.14,112.08a183.29,183.29,0,0,0,60.61,33.35c20.29,6.6,42.76,10.13,66.78,10.47,16.81.25,34.82.36,56.68.36,14.5,0,29.23,0,43.47-.1,13.65,0,27.76-.1,41.65-.1.56,0,1.11.06,1.69.06,15.13,0,30.59.19,45.54.36s30.65.35,46,.35c22.8,0,41.61-.4,59.2-1.27,31.17-1.53,56-13,71.86-33.22a82.45,82.45,0,0,0,16.12-36.62c2.41-13.22,2.15-27.63-.8-42.83-7.28-37.55-29.29-65.18-47.66-85.06-5.21-5.63-10.63-10.84-15.88-15.87l7.67,0c6.88,0,14-.07,21-.07,10.85,0,19.73.1,28,.3.48,0,.94,0,1.39,0,9.75,0,17.55-2.91,23.2-8.65,8.59-8.74,8.39-20.14,8.33-23.89-.33-19.84-.61-43.36,0-67.47a40.55,40.55,0,0,0-1.19-11.4,28,28,0,0,0-7-12.62c-7.72-7.9-17.7-8.81-24.52-8.81h-.62c-20.31.17-40.4.19-55.62.19h-25.23l-25.27,0c-12.56,0-22.9,0-32.58,0a256.75,256.75,0,0,0-26.18,1.86l-2,.22a77.76,77.76,0,0,0-36.08,12.89,72.83,72.83,0,0,0-11,9.18,28.35,28.35,0,0,0-7.81-15.84c-5.58-5.6-13.22-8.45-22.69-8.45h-.5c-5.41,0-11.17.07-17.62.07-8.5,0-17.16,0-25.53-.09S1300.39,1060.34,1291.8,1060.34Zm68.51,132.84a39.59,39.59,0,0,0,12.42-1.73,128.52,128.52,0,0,0,5.24,13,167.12,167.12,0,0,0,24.57,37.37c8.28,9.71,17.15,18.71,25.72,27.41q3.43,3.48,6.73,6.86c-12,0-24.1.08-35.86.13-18.53.08-37.7.16-56.52.16-29.12,0-53-.2-75.25-.62-19.74-.37-40.3-4.2-58-7.77-7.1-1.42-11.39-6.38-12.74-14.7-1.79-11-1.15-23.57-.42-34.49.86-12.72,9.45-17,17.75-19.56,11.51-3.52,21.91-5.41,30.92-5.62,18.53-.42,38.13-.62,61.7-.62,17.23,0,34.35.1,53.35.23Z" transform="translate(-66.56 -37.13)"/><path class="cls-6" d="M464.05,1396.41A10.09,10.09,0,0,1,454,1386.32V1182.84l-5.86,0c-4.92,0-9.73,0-14.47,0-8.09,0-14.65.06-20.65.2l-1,0c-2.37,0-9.6,0-14.84-5.29-3.54-3.58-5.24-8.46-5.18-14.93.19-21,.19-43.35,0-72.51,0-6.28,1.63-11,5.09-14.51,5.2-5.23,12.44-5.23,14.82-5.23,5.4,0,10.71,0,16,0h.09c21,0,42.29-.07,62.91-.14s42-.14,63-.14c38.85,0,70.41.25,99.31.78,44,.82,75.92,16.29,94.79,46,25.25,39.74,28.6,82.14,9.43,119.39-9.84,19.13-23.84,33.93-41.61,44-16.9,9.6-36.78,14.68-59.09,15.1-11.63.22-23.35.33-34.84.33-12.76,0-25.62-.14-38.22-.4h-.68c-.71,0-1.27,0-1.69.06a18.87,18.87,0,0,0-.06,2.17c.39,21.12.32,42.66.25,63.49q0,12.51-.06,25.13a10.09,10.09,0,0,1-10.09,10.09H464.05m117.69-193.59c10.2.2,21.71.4,33,.4,12.47,0,23.49-.23,33.7-.72a14.45,14.45,0,0,0,5.51-2.88,76.06,76.06,0,0,0-1.16-27.53c-1.26-1.51-5.06-3.69-6.76-3.83-9.79-.48-20.23-.69-33.84-.69-6.51,0-12.95.05-19.76.1-3.57,0-7.21,0-10.88.06,0,.89,0,1.78,0,2.66C581.45,1181.64,581.4,1192.3,581.74,1202.83Z" transform="translate(-66.56 -37.13)"/><path class="cls-3" d="M554,1080.36c33,0,66.09.17,99.12.78,33.92.63,66.77,10.33,86.46,41.31,21.79,34.31,27.79,72.82,9,109.36-18.3,35.55-51.39,52.9-91.92,53.66q-17.33.33-34.66.33-19,0-38-.4h-.89c-8.8,0-12,3-11.84,12.51.55,29.26.2,58.53.2,88.42H464V1172.78c-10.67,0-20.69-.09-30.42-.09-7.06,0-14,0-20.89.21H412c-7,0-10-2.61-9.93-10.05.22-24.22.16-48.44,0-72.66,0-7,2.7-9.59,9.82-9.59H412q8.06,0,16.1,0c42,0,83.93-.27,125.89-.27m60.73,133c11.4,0,22.81-.19,34.18-.73,5.31-.25,14.13-5.75,14.77-9.85a86.41,86.41,0,0,0-1.29-33.8c-1.22-4.78-10.18-10.46-15.87-10.73-11.37-.55-22.76-.69-34.33-.69-13.26,0-26.76.19-40.71.19,0,17.15-.31,32.82.32,48.46.1,2.43,4.45,6.66,6.9,6.71,12,.23,24,.44,36,.44M554,1060.18c-21,0-42.36.07-63,.14s-41.93.14-62.88.14q-8,0-16.06,0h-.09c-9.17,0-16.56,2.76-22,8.21s-8.08,12.7-8,21.68c.18,29.08.17,51.39,0,72.36-.08,9.17,2.64,16.62,8.1,22.12s12.85,8.28,22,8.28l1.18,0c5.92-.14,12.41-.2,20.41-.2l10.25,0v193.43a20.18,20.18,0,0,0,20.18,20.18H571.42a20.18,20.18,0,0,0,20.18-20.18c0-8.4,0-16.88.06-25.1.06-18.2.12-36.94-.12-55.51,10.09.17,20.29.26,30.43.26,11.56,0,23.35-.11,35-.33,49.63-.93,88.51-23.87,109.48-64.59,20.88-40.57,17.37-86.53-9.88-129.42-20.8-32.73-55.49-49.78-103.11-50.66C624.5,1060.43,592.89,1060.18,554,1060.18Zm37.59,117.6h.91c6.8,0,13.22-.1,19.69-.1,12.61,0,22.44.19,31.56.59a66.1,66.1,0,0,1,.73,14.32c-9.08.38-18.85.56-29.75.56-7.74,0-15.61-.09-23.09-.22Q591.52,1185.48,591.56,1177.78Z" transform="translate(-66.56 -37.13)"/><path class="cls-6" d="M780,1396.23a10.1,10.1,0,0,1-10.08-9.6c0-1.05-.12-2.1-.18-3.16-.16-2.51-.32-5.11-.32-7.84q0-36.29,0-72.57c0-68.94,0-140.24-.27-210.35,0-5.29.58-12,5.44-16.88s11.51-5.47,16.79-5.47h.32c45.48.22,90.24.24,131.84.24h97.12c8.69,0,15,0,19.74,4.83s4.72,10.72,4.73,19.74c0,6.47,0,13-.1,19.38-.1,14.86-.22,30.23.35,45.2.19,5-.15,12.14-5.25,17.43s-12,5.88-17.62,5.88h-.61c-16.22-.15-33.61-.21-54.74-.21q-21.09,0-42.18.06l-35.1.06h-2.78v13.94h90A10.09,10.09,0,0,1,987.14,1207v53.63a10.09,10.09,0,0,1-10.09,10.09H887.17v14.89H1059a10.09,10.09,0,0,1,10.09,10.09v90.46a10.09,10.09,0,0,1-10.09,10.09H780" transform="translate(-66.56 -37.13)"/><path class="cls-3" d="M791.37,1080.45h.27q66,.32,132,.24h97c14.36,0,14.38.06,14.39,14.49,0,21.65-.56,43.33.26,65,.4,10.44-3.41,12.83-12.78,12.83H1022q-27.43-.24-54.87-.21c-25.74,0-51.5.1-77.25.11H877V1207H977.06v53.63h-100v35.06H1059v90.46H780c-.17-3.45-.49-7-.49-10.51,0-94.32.12-188.65-.27-283-.05-9.81,2.85-12.22,12.14-12.22m0-20.17c-4.27,0-15.53,0-23.91,8.44-7.57,7.6-8.41,17.36-8.38,24,.29,70.08.28,141.35.27,210.28q0,36.3,0,72.61c0,3,.18,5.92.34,8.47.06,1,.13,2,.18,3A20.17,20.17,0,0,0,780,1406.33h279a20.19,20.19,0,0,0,20.18-20.18v-90.46a20.18,20.18,0,0,0-20.18-20.18H990.67a20.13,20.13,0,0,0,6.57-14.89V1207a20.06,20.06,0,0,0-5.67-14c10.83,0,20.73.09,30.23.18h.7c4.45,0,16.24,0,24.88-9s8.22-20.9,8.06-24.82c-.56-14.74-.44-30-.34-44.73.05-6.36.1-12.94.1-19.46,0-9.84,0-19.13-7.64-26.83-4.14-4.18-9.63-6.69-16.32-7.46a96.77,96.77,0,0,0-10.6-.36h-97c-41.59,0-86.36,0-131.85-.24h-.4Z" transform="translate(-66.56 -37.13)"/><path class="cls-6" d="M924.93,1062a9.68,9.68,0,0,1-9.31-12.34c.67-2.36,1.18-4.41,1.61-6.22a43.65,43.65,0,0,1,3.42-10.27c8.11-15.53,16.25-30.46,24.2-44.41,2.75-4.83,8.73-10.06,15.35-10.13,6.78-.06,13.78-.09,21.4-.09,16.5,0,33.26.15,49.47.29l6.21.06a12.85,12.85,0,0,1,7.68,3c.71.51,1.6,1.14,2.9,2a9.69,9.69,0,0,1-.8,16.79L929.33,1061a9.61,9.61,0,0,1-4.4,1.06" transform="translate(-66.56 -37.13)"/><path class="cls-3" d="M981.62,988.25c18.53,0,37.06.19,55.59.35.86,0,1.71,1,5.45,3.41l-117.73,60.33c2-7.14,2.52-11.24,4.3-14.66q11.64-22.26,24-44.09c1.36-2.39,4.62-5.22,7-5.25q10.68-.09,21.33-.09m0-19.36c-7.66,0-14.69,0-21.5.09-10.5.1-19.46,7.62-23.68,15-8,14-16.2,29.08-24.37,44.72a52.35,52.35,0,0,0-4.24,12.46c-.44,1.81-.9,3.68-1.53,5.87a19.37,19.37,0,0,0,27.46,22.55l117.73-60.33a19.37,19.37,0,0,0,1.58-33.57c-1.09-.69-1.82-1.23-2.48-1.69a22.17,22.17,0,0,0-13.23-4.76l-6.13-.06C1015,969,998.18,968.89,981.62,968.89Z" transform="translate(-66.56 -37.13)"/><path class="cls-7" d="M340.78,1466l-90.43,60.46-19.11-28.58,18.14-32.9a327.66,327.66,0,0,1,22.21-35.38l-.25-.37a411.71,411.71,0,0,1-36.86,27.27l-21.37,14.28-14.8-22.14,90.43-60.46,17.09,25.56L286,1449.18a431.08,431.08,0,0,1-22.49,37.07l.31.47c11.81-8.76,25.22-18.17,39.91-28L326,1443.88,340.78,1466" transform="translate(-66.56 -37.13)"/><path class="cls-7" d="M245.26,1359.2l25.33-5.66,13.34,27L172.41,1400.4l-17.17-34.81,83.21-77.23,13.92,28.23L232.82,1334l12.44,25.23m-30-12.12L200,1360.26c-4.77,4.2-11.82,10-16.82,14.33l.14.29c6.47-1.4,15.22-3.91,21.45-5.23l19.51-4.41Z" transform="translate(-66.56 -37.13)"/><path class="cls-7" d="M207.1,1285.9a66.9,66.9,0,0,0-3.06-28.83c-3.33-9.4-8.24-12.88-13.41-11-4.91,1.74-6.17,7.37-6,20.37,0,19.43-5.47,34.34-20.72,39.74-18.14,6.42-37.48-3.94-46.65-29.83-4.34-12.25-5.15-21.81-4.57-29.59l24-2a57.32,57.32,0,0,0,3,24c3,8.37,7.67,11.88,12.16,10.29,5.21-1.84,5.38-8,5.63-22.67.22-20.88,7.19-32.64,21.45-37.69,17.72-6.28,37.66,2.15,48.26,32.09,4.38,12.36,5.39,25.49,4.44,32.38l-24.53,2.81" transform="translate(-66.56 -37.13)"/><polyline class="cls-7" points="27.12 1153.69 66.38 1144.93 58.69 1110.43 19.43 1119.19 13.08 1090.76 119.26 1067.08 125.6 1095.51 83.5 1104.91 91.19 1139.41 133.29 1130.01 139.64 1158.45 33.46 1182.13 27.12 1153.69"/><g class="cls-8"><polyline class="cls-7" points="66.84 986.61 70.74 1025.51 90.69 1023.52 86.33 980.04 110.02 977.66 117.29 1050.13 9.04 1060.98 2.01 990.76 25.69 988.38 29.83 1029.61 47.29 1027.86 43.39 988.96 66.84 986.61"/></g><g class="cls-8"><path class="cls-3" d="M68.37,999.88c-1.1-6.6-2-21-1.78-34.41.25-15.37,1.49-24.67,5.86-33.08,4.09-8.41,12-14.45,22.63-14.28,9.16.15,18,5.29,22.55,18h.4c3.81-13.26,13.82-21.09,26.73-20.88,10.25.16,18.19,5.25,23.52,12.57,6,8.29,9.41,21.86,9,45.18a192.54,192.54,0,0,1-2.24,28.62l-106.7-1.73m40.85-28.2.09-5.85c.2-12.3-4.06-18.34-11.08-18.46-6.37-.1-10.49,4.67-10.65,14.44a51.17,51.17,0,0,0,.49,9.53Zm46.44.75a59.3,59.3,0,0,0,.46-8.38c.16-9.68-3.58-18-13.14-18.17-9.2-.15-12.88,8.22-13.06,19.16l-.11,7Z" transform="translate(-66.56 -37.13)"/></g><path class="cls-7" d="M136.71,794c34.65,4.85,53.79,28.76,49.14,62-4.68,33.41-32.3,48.24-62.23,44-31.37-4.39-53.39-28.41-48.77-61.42C79.7,804,107.86,790,136.71,794m-9.34,75.46c20.26,2.83,33.88-4.26,35.81-18,2-14-10.41-24-29.83-26.75-18.54-2.6-33.77,3.75-35.73,17.73C95.72,856,107.55,866.66,127.37,869.44Z" transform="translate(-66.56 -37.13)"/><path class="cls-7" d="M201.85,759.91,98.38,726.34,109,693.64l37.07-6.13A326.63,326.63,0,0,1,187.6,683l.14-.42a411.45,411.45,0,0,1-44.23-12.06l-24.45-7.93,8.22-25.33,103.47,33.57-9.49,29.24-40.08,6.38a433.41,433.41,0,0,1-43,5.3l-.17.54c14.19,3.84,29.89,8.55,46.7,14l25.41,8.24-8.23,25.33" transform="translate(-66.56 -37.13)"/><path class="cls-7" d="M231.41,539.18c31.49,15.24,42.38,43.86,27.76,74.08s-45.53,36-72.74,22.85c-28.51-13.8-42.1-43.41-27.59-73.41,15.25-31.5,46.35-36.21,72.57-23.52m-32,69C217.8,617,233,614.46,239,601.93c6.17-12.75-2.54-26.06-20.19-34.6-16.85-8.15-33.29-6.79-39.44,5.93C173.38,585.64,181.38,599.41,199.39,608.13Z" transform="translate(-66.56 -37.13)"/><path class="cls-7" d="M298.68,537.22l-36.94-23.8-73.09-6.28,18.09-28.09,25.59,5.5c8,1.62,13.71,2.93,20.9,4.73l.18-.27c-4.38-5.41-8.31-10.49-13.12-16.81l-15.76-20.76,17.79-27.61,34.28,64.51,37.86,24.39-15.78,24.49" transform="translate(-66.56 -37.13)"/><path class="cls-7" d="M328.06,450.6l15.81,20.58L325,494.67l-65-92.76,24.32-30.25L389.4,414.54l-19.72,24.53-24-10.39L328.06,450.6m-1.64-32.28L308,410c-5.82-2.55-14-6.51-20.09-9.21l-.2.25c4,5.28,10,12.15,13.78,17.24l12.22,15.83Z" transform="translate(-66.56 -37.13)"/><path class="cls-7" d="M346.83,305.07c4.08-5.3,14-15.75,24-24.74C382.23,270,389.89,264.62,399,262.09c8.94-2.73,18.77-1,25.87,6.84,6.13,6.81,8.38,16.78,2.18,28.77l.27.3c12.3-6.24,24.85-4.24,33.49,5.35,6.86,7.62,8.54,16.9,6.82,25.79-2,10-9.6,21.78-26.93,37.39a192.35,192.35,0,0,1-22.48,17.85l-71.41-79.31m48.47,10.71,4.35-3.91c9.14-8.24,10.67-15.47,6-20.69-4.27-4.74-10.56-4.5-17.82,2a50.51,50.51,0,0,0-6.64,6.85Zm31.07,34.51a60.76,60.76,0,0,0,6.45-5.38c7.2-6.48,10.75-14.89,4.35-22-6.16-6.84-14.8-3.83-22.93,3.49l-5.19,4.67Z" transform="translate(-66.56 -37.13)"/><path class="cls-7" d="M430.78,231.91a237.75,237.75,0,0,1,27.35-22.19c13.61-9.62,24.69-14.63,34.94-14.32,8.77.32,16.31,4.48,22.46,13.18,7.82,11.07,5.09,24.82,0,32.24l.33.46c7.69-1.63,14.89,1.78,22.61,7.88,9.05,7.14,21.11,18,25.25,20.2l-24.32,17.18c-3.17-1.62-10.39-6.94-20.69-16.06-9.93-8.94-14.75-8.85-22.1-3.65l-3.86,2.72,23.54,33.31-23.56,16.65-61.91-87.6m49.87,20.59,6.19-4.38c9-6.33,11-14.37,6.34-21s-11.76-7.35-19.72-1.83c-4.48,3.17-6.69,5.07-7.67,6.21Z" transform="translate(-66.56 -37.13)"/><path class="cls-7" d="M586.53,228,593,253.11l-26.59,14.2L543,156.49l34.24-18.29,79.86,80.67L629.33,233.7l-18-19L586.53,228m11.15-30.34L584,182.75c-4.35-4.63-10.35-11.49-14.86-16.35l-.28.15c1.6,6.42,4.39,15.08,5.92,21.27l5,19.36Z" transform="translate(-66.56 -37.13)"/><polyline class="cls-7" points="589.94 165.43 610.13 84.1 609.91 83.53 569.26 99.23 560.58 76.76 636.47 47.45 642.47 63 623.22 142.72 623.43 143.28 667.74 126.17 676.42 148.64 595.53 179.88 589.94 165.43"/><polyline class="cls-7" points="686.35 33.12 716.76 137.57 688.78 145.72 658.37 41.27 686.35 33.12"/><polyline class="cls-7" points="712.02 26.01 740.55 20.12 757.62 102.75 798.64 94.27 803.58 118.18 734.03 132.55 712.02 26.01"/><polyline class="cls-7" points="831.05 5.58 844.56 113.52 815.65 117.14 802.14 9.2 831.05 5.58"/><path class="cls-7" d="M956.25,121.78l-5.32,25.4-30.13,1,28-109.74,38.79-1.25,35.93,107.68-31.46,1-7.75-25-28.1.91m23.43-22.27L974,80.11c-1.85-6.08-4.2-14.88-6.09-21.24h-.32c-1.4,6.46-2.74,15.47-4.11,21.69l-4,19.59Z" transform="translate(-66.56 -37.13)"/><path class="cls-7" d="M1034.14,145.41l10.53-108.28,34.22,3.33,14,34.89A325.91,325.91,0,0,1,1106.14,115l.44,0a409.63,409.63,0,0,1,2.27-45.79l2.49-25.58,26.51,2.58-10.53,108.28-30.61-3-14.85-37.77a431.7,431.7,0,0,1-14.43-40.89l-.56,0c-.7,14.69-1.92,31-3.63,48.62L1060.65,148l-26.51-2.6" transform="translate(-66.56 -37.13)"/><path class="cls-7" d="M1220.94,63.6l28.29,7-16.12,65.14c-7.62,30.79-25.13,38.55-50.47,32.28-5.76-1.43-13.24-4.11-18.09-7.18l8.59-22a48.1,48.1,0,0,0,12,4.84c9.09,2.25,16-.31,19.65-14.88l16.13-65.22" transform="translate(-66.56 -37.13)"/><polyline class="cls-7" points="1234.4 49.66 1200.94 153.18 1173.21 144.21 1206.68 40.7 1234.4 49.66"/><path class="cls-7" d="M1354.19,106.73l-24.52,56.66c-6.52,15.07-5,25.85,5.61,30.43s19.16-.9,26-16.75l24.52-56.66L1412.56,132l-23.82,55.07c-13.35,30.85-35.41,39.77-63.48,27.62-27.29-11.81-35.21-33-21.35-65.07l23.56-54.44,26.72,11.57" transform="translate(-66.56 -37.13)"/><polyline class="cls-7" points="1381.79 166.6 1372.62 183.15 1334.79 162.19 1343.95 145.64 1381.79 166.6"/><path class="cls-7" d="M1505.57,186.08,1530,202l-36.65,56.21c-17.33,26.57-36.41,28.14-58.28,13.88-5-3.24-11.15-8.24-14.72-12.73l15.35-17.93a48.16,48.16,0,0,0,9.76,8.53c7.84,5.11,15.24,5,23.44-7.59l36.7-56.28" transform="translate(-66.56 -37.13)"/><polyline class="cls-7" points="1506.93 197.12 1441.33 283.9 1418.09 266.33 1483.69 179.55 1506.93 197.12"/><polyline class="cls-7" points="1527.66 245.81 1507 227.33 1523.31 209.11 1586.73 265.85 1570.42 284.07 1549.38 265.24 1493.14 328.09 1471.43 308.66 1527.66 245.81"/><path class="cls-7" d="M1609.73,372.74a66.9,66.9,0,0,0,13.94,25.43c6.69,7.38,12.57,8.7,16.63,5,3.86-3.5,2.86-9.17-2.3-21.11-7.49-17.94-8.19-33.8,3.8-44.66,14.26-12.92,36.1-10.82,54.55,9.54,8.72,9.63,13.16,18.13,15.62,25.54l-21.34,11.12a57.4,57.4,0,0,0-12.06-21c-6-6.58-11.65-8-15.19-4.8-4.09,3.71-1.86,9.48,3.55,23.09,7.84,19.35,6,32.89-5.26,43.05-13.94,12.63-35.58,12.53-56.91-11-8.8-9.72-14.79-21.44-16.58-28.15l21.55-12.08" transform="translate(-66.56 -37.13)"/><path class="cls-7" d="M1750.87,416.41l-50.34,35.74c-13.4,9.51-17.67,19.52-11,28.93s16.86,9.17,30.94-.83l50.34-35.74,16.87,23.76L1738.75,503c-27.41,19.46-50.9,15.65-68.6-9.29-17.22-24.25-13-46.51,15.48-66.71L1734,392.66l16.87,23.75" transform="translate(-66.56 -37.13)"/><path class="cls-7" d="M1758.12,587l-25.38,5.44-13.1-27.15,111.69-18.86,16.87,35-83.88,76.49-13.67-28.35,19.69-17.21L1758.12,587M1788,599.35l15.44-13.05c4.8-4.16,11.9-9.87,16.95-14.18l-.14-.29c-6.48,1.33-15.25,3.77-21.5,5l-19.55,4.24Z" transform="translate(-66.56 -37.13)"/><path class="cls-7" d="M1833.25,743.25c11.68-4,25.46-8.62,41.73-13.66l-.13-.42c-14.83,1.12-31.68,1.56-44.13,1.77l-39.42,1-6.79-21.76,33.37-20c10.35-6.14,24.71-14.14,38.24-21l-.1-.31c-14.82,4-30.46,8.28-42.4,11.5l-37.66,10-8-25.61,105.84-26,11.69,37.44-25.82,15.58c-10.67,6.46-23.46,13.83-35.53,20l.17.54c13.57-1.07,29.33-2.18,41.21-2.55l30.17-.87,11.42,36.59L1804.9,783.1l-8.43-27,36.78-12.85" transform="translate(-66.56 -37.13)"/><path class="cls-7" d="M1835.39,794.74a66.86,66.86,0,0,0-2,28.93c1.65,9.83,5.88,14.11,11.3,13.2,5.13-.86,7.35-6.18,9.45-19,3.37-19.14,11.34-32.88,27.29-35.56,19-3.19,36.23,10.36,40.78,37.46,2.15,12.81,1.31,22.37-.61,29.93l-24-2.15a57.43,57.43,0,0,0,1.17-24.18c-1.47-8.75-5.5-13-10.19-12.24-5.46.92-6.69,7-9.47,21.35-3.83,20.53-12.73,30.9-27.66,33.41-18.54,3.11-36.72-8.64-42-40-2.17-12.93-.9-26,1.23-32.65l24.63,1.48" transform="translate(-66.56 -37.13)"/><polyline class="cls-7" points="1839.02 863.19 1837.37 835.51 1861.78 834.07 1866.84 919.01 1842.42 920.47 1840.75 892.27 1756.57 897.27 1754.84 868.2 1839.02 863.19"/><polyline class="cls-7" points="1798.61 1006.37 1800.39 967.31 1780.36 966.41 1778.37 1010.06 1754.59 1008.98 1757.89 936.22 1866.57 941.16 1863.37 1011.66 1839.58 1010.58 1841.46 969.18 1823.93 968.39 1822.15 1007.44 1798.61 1006.37"/><path class="cls-7" d="M1925.88,1076.06a236.65,236.65,0,0,1-3.15,35.08c-2.58,16.46-6.71,27.91-14.08,35-6.34,6.07-14.58,8.57-25.11,6.92-13.39-2.11-21.34-13.65-23.09-22.5l-.56-.09c-4.19,6.65-11.65,9.44-21.41,10.72-11.43,1.52-27.62,2.61-32.09,4l4.62-29.42c3.37-1.15,12.22-2.61,25.94-3.65,13.33-.89,16.62-4.41,18-13.3l.73-4.66-40.3-6.33,4.49-28.5,106,16.66m-49.52,21.42-1.18,7.5c-1.71,10.84,2.61,17.93,10.66,19.2s13.47-3.32,15.05-12.87c.86-5.42,1-8.34.9-9.83Z" transform="translate(-66.56 -37.13)"/><path class="cls-7" d="M1907.42,1184.32a229.22,229.22,0,0,1-7.39,33.86c-5.81,20-12.71,31.64-22.85,40-11.28,9.2-26.45,12.82-45.64,7.26-21.27-6.17-32.76-18.25-37.75-30.75-5.58-14.05-4.57-32.33,1.36-52.75a198.33,198.33,0,0,1,9.78-27.33l102.49,29.75m-90.26,4.1a37.58,37.58,0,0,0-2,5.83c-5.5,18.07.57,34.37,24.13,41.21,20.43,5.92,33.56-3.45,38.44-20.23a41.47,41.47,0,0,0,1.78-8.73Z" transform="translate(-66.56 -37.13)"/><path class="cls-7" d="M1784.76,1294.62l-20.66-15.71,12.06-27.62,87.07,72.44-15.53,35.57L1735,1345.5l12.6-28.84,25.89,3.73,11.24-25.77m10.06,30.72,20,3.21c6.29.94,15.24,2.6,21.81,3.62l.13-.3c-5.24-4-12.8-9.11-17.83-13l-16-12.07Z" transform="translate(-66.56 -37.13)"/><path class="cls-7" d="M1715.17,1453.46c10.67,6.23,23.14,13.69,37.57,22.73l.23-.37c-10.52-10.52-21.84-23-30.11-32.31l-26.47-29.22,12.07-19.34,36.9,12.29c11.39,3.83,26.82,9.52,40.87,15.29l.17-.27c-12.69-8.63-26.15-17.7-36.36-24.65l-32.15-22,14.21-22.76,88.73,63.29-20.77,33.26L1771.4,1440c-11.85-3.88-25.78-8.77-38.3-13.93l-.3.48c9.65,9.6,20.77,20.82,28.8,29.6l20.33,22.3-20.3,32.51-95.15-53,15-24,33.71,19.53" transform="translate(-66.56 -37.13)"/><polyline class="cls-7" points="535.97 1692 513.77 1737.13 553.42 1756.63 575.62 1711.51 608.29 1727.57 548.28 1849.59 515.6 1833.53 539.4 1785.15 499.75 1765.64 475.95 1814.02 443.28 1797.95 503.29 1675.93 535.97 1692"/><path class="cls-7" d="M731.49,1783.77l-22.3,73.88c-5.93,19.65-2.47,32.81,11.34,37s23.66-3.87,29.9-24.53l22.3-73.88,34.86,10.52-21.67,71.8c-12.14,40.22-38.25,54.47-74.85,43.42-35.59-10.74-48.47-36-35.86-77.73l21.42-71,34.86,10.52" transform="translate(-66.56 -37.13)"/><g class="cls-8"><path class="cls-7" d="M812.92,1946.52l17.53-134.84,42.61,5.54,16,44.15c5.56,14.35,11.12,33.43,15,50l.55.07a514.73,514.73,0,0,1,4.68-57.12l4.14-31.86,33,4.29L929,1961.6l-38.11-4.95-17-47.78a540.09,540.09,0,0,1-16.37-51.67l-.7-.09c-1.47,18.32-3.66,38.69-6.5,60.6l-4.3,33.11-33-4.3" transform="translate(-66.56 -37.13)"/></g><g class="cls-8"><path class="cls-7" d="M1092.05,1953.62c-10.13,3.75-29,8.64-46.69,9.22-26.67.85-45.18-5.22-57.76-16.53-13.19-11.64-20.41-29-20.93-48.44-1.31-47.24,33.06-72.36,77.13-73.77,18.35-.58,32.42,2.24,39.63,5.4l-6.38,29.32c-7.77-3-17-5.21-32.5-4.71-22.43.72-40.62,13.06-39.73,40.68.81,25.31,17.71,39.5,40,38.79,5-.16,9.66-.77,11.4-1.53l-.74-23.4-18.2.58-.9-28.28,53.29-1.7,2.39,74.37" transform="translate(-66.56 -37.13)"/></g><path class="cls-7" d="M1163.79,1917.16l-1.54,32.4-37,7.16,12.92-141,47.64-9.21,65.63,125.81-38.63,7.46-14.5-29.3-34.53,6.68m24.52-32.12-10.84-22.82c-3.49-7.13-8.12-17.54-11.72-25l-.4.07c-.46,8.26-.31,19.63-.78,27.58l-1.13,25Z" transform="translate(-66.56 -37.13)"/><path class="cls-7" d="M1241.33,1795.39a297.55,297.55,0,0,1,40.41-17.5c19.62-7,34.65-9.29,46.89-5.46,10.45,3.34,18.12,10.89,22.59,23.44,5.69,16-2.24,31.59-10.91,38.79l.23.67c9.81.63,17.33,7.16,24.57,17.11,8.49,11.65,19.35,28.77,23.58,32.83l-35.06,12.49c-3.27-3-10.17-11.85-19.49-26.31-8.93-14.11-14.78-15.62-25.37-11.85l-5.56,2,17.12,48-34,12.1-45-126.33m53.11,41.6,8.93-3.19c12.92-4.6,18.13-13.57,14.71-23.18s-11.69-12.81-23.12-8.84c-6.46,2.3-9.76,3.85-11.32,4.88Z" transform="translate(-66.56 -37.13)"/><path class="cls-7" d="M1443.24,1858.35l-25.49-48.65-75.6-51.89,37-19.38,24.44,21.76c7.73,6.71,13.11,11.64,19.81,18l.36-.19c-1.43-8.59-2.57-16.54-3.91-26.36l-4.34-32.3,36.37-19-2.51,91.28,26.13,49.86-32.25,16.89" transform="translate(-66.56 -37.13)"/></svg>